<?xml version="1.0" encoding="UTF-8" standalone="no"?>
<!-- Created with Inkscape (http://www.inkscape.org/) -->

<svg
   width="210mm"
   height="297mm"
   viewBox="0 0 210 297"
   version="1.1"
   id="svg240"
   xml:space="preserve"
   inkscape:version="1.2.2 (b0a8486541, 2022-12-01)"
   sodipodi:docname="new-shofer-logo.svg"
   xmlns:inkscape="http://www.inkscape.org/namespaces/inkscape"
   xmlns:sodipodi="http://sodipodi.sourceforge.net/DTD/sodipodi-0.dtd"
   xmlns="http://www.w3.org/2000/svg"
   xmlns:svg="http://www.w3.org/2000/svg"><sodipodi:namedview
     id="namedview242"
     pagecolor="#ffffff"
     bordercolor="#666666"
     borderopacity="1.0"
     inkscape:showpageshadow="2"
     inkscape:pageopacity="0.0"
     inkscape:pagecheckerboard="0"
     inkscape:deskcolor="#d1d1d1"
     inkscape:document-units="mm"
     showgrid="false"
     inkscape:zoom="0.83294753"
     inkscape:cx="37.21723"
     inkscape:cy="144.66698"
     inkscape:window-width="1920"
     inkscape:window-height="1121"
     inkscape:window-x="0"
     inkscape:window-y="0"
     inkscape:window-maximized="1"
     inkscape:current-layer="layer1" /><defs
     id="defs237" /><g
     inkscape:label="Layer 1"
     inkscape:groupmode="layer"
     id="layer1"><rect
       style="fill:#000000;fill-opacity:1;stroke-width:0;stroke-linecap:round;stroke-dasharray:none"
       id="rect11850"
       width="85.238609"
       height="86.208916"
       x="54.893383"
       y="46.278446" /><path
       style="fill:#000000;stroke-width:0.264583"
       d="m 51.077177,165.89311 c 30.536103,-0.41639 62.062313,-0.23381 92.597943,0 -0.14076,31.78825 0.69846,63.45704 0,95.23623 -29.87766,0.47308 -62.722627,0.35414 -92.597943,0 -0.291301,-31.7446 0.0703,-63.49061 0,-95.23623 z m 55.129363,87.27221 c 4.829,-1.08445 9.48543,-3.016 13.22886,-5.48751 2.05364,-1.35587 4.22446,-3.01999 4.56538,-3.49975 0.58319,-0.82071 -0.12658,-2.25793 -1.11507,-2.25793 -0.26731,0 -1.12201,0.51357 -1.89933,1.14127 -3.27391,2.64372 -7.89427,5.18411 -9.82431,5.40165 -4.06359,0.45803 -7.33172,-2.09613 -7.33172,-5.72999 0,-3.11388 1.48712,-8.0669 3.42168,-11.39627 1.75517,-3.02063 5.57349,-6.67067 8.61686,-8.23707 3.74883,-1.9295 5.65303,-2.47835 8.59896,-2.47846 2.72786,-1e-4 3.49,0.25477 4.86075,1.62552 1.43094,1.43095 1.87946,2.65084 1.88295,5.12127 0.003,1.9773 -0.0974,2.46127 -0.82961,4.00667 -0.72413,1.52837 -2.1275,3.71346 -4.26044,6.63363 -0.32743,0.44827 -0.59532,0.97602 -0.59532,1.17278 0,0.49657 0.96759,1.41608 1.49012,1.41608 1.53506,0 6.40671,-7.84921 8.12863,-13.09687 1.45691,-4.44003 1.85384,-7.02844 1.86638,-12.17084 0.01,-4.00543 -0.0859,-5.22081 -0.60182,-7.64553 -0.70758,-3.32548 -1.93087,-6.89198 -3.28194,-9.5685 -1.19563,-2.36859 -3.86594,-6.36134 -4.93346,-7.37673 -0.70469,-0.67027 -0.91902,-0.74303 -1.54463,-0.52439 -0.5494,0.19201 -0.74595,0.45343 -0.80662,1.07284 -0.0633,0.64604 0.21607,1.21337 1.32292,2.68676 1.89779,2.52626 3.13131,4.60936 3.69469,6.23941 1.78011,5.15041 -1.59346,10.12137 -6.52489,9.61446 -0.72761,-0.0748 -3.52557,-0.90799 -6.21771,-1.85155 -8.64124,-3.02865 -15.51224,-4.68532 -19.432218,-4.68532 -4.10052,0 -11.746678,1.83554 -19.990702,4.79897 -4.141459,1.48871 -4.842809,1.66467 -6.644301,1.66698 -1.74484,0.002 -2.157584,-0.0924 -3.087447,-0.70773 -3.063525,-2.02734 -4.004958,-5.71076 -2.422014,-9.47629 0.691454,-1.64484 2.523302,-4.61469 3.86674,-6.26888 1.154813,-1.42194 1.163021,-2.69018 0.02,-3.08965 -0.62561,-0.21864 -0.839922,-0.14588 -1.544547,0.52439 -1.006134,0.95708 -3.276214,4.33642 -4.699561,6.99596 -1.385347,2.58855 -3.019041,7.39231 -3.644241,10.71563 -0.721968,3.83771 -0.666742,10.657 0.115951,14.31731 1.134475,5.30547 3.502824,10.68907 6.593165,14.98722 1.830422,2.54582 2.467184,3.04021 3.38001,2.6243 1.235734,-0.56304 1.121502,-1.43138 -0.466609,-3.54703 -2.234784,-2.97713 -3.829613,-5.94007 -4.20621,-7.81448 -0.619289,-3.08234 0.447376,-5.86252 2.914075,-7.59534 1.09573,-0.76974 1.245838,-0.80021 3.829071,-0.77738 2.26668,0.02 3.045457,0.14829 4.962287,0.81724 5.991095,2.09082 10.695575,6.35248 13.346635,12.09035 1.363828,2.95184 2.088868,5.98742 2.098518,8.78614 0.008,2.23269 -0.0466,2.48221 -0.76691,3.52246 -1.143078,1.65089 -2.708288,2.46662 -5.007468,2.60971 -1.86124,0.11583 -1.93494,0.0952 -4.80068,-1.34627 -1.60073,-0.80516 -4.032379,-2.30553 -5.40367,-3.33417 -2.591178,-1.94372 -3.14045,-2.15188 -3.837847,-1.45449 -1.035764,1.03577 -0.403037,1.94913 3.064253,4.42333 4.680274,3.33978 9.367344,5.31067 15.569972,6.54712 3.21191,0.64027 11.152518,0.56186 14.282448,-0.14103 z m -11.107438,-2.24217 c -0.80036,-0.10341 -1.90249,-0.27194 -2.44917,-0.37451 l -0.993968,-0.18649 1.555508,-1.44012 c 2.068,-1.9146 2.78737,-3.52539 2.77252,-6.20815 -0.0166,-2.99224 -1.16944,-7.76477 -2.51089,-10.39422 -0.29017,-0.56878 -0.48444,-1.07728 -0.43171,-1.13001 0.0527,-0.0527 0.80517,0.0995 1.6721,0.33835 0.88896,0.24489 2.55684,0.43422 3.82519,0.43422 1.26836,0 2.936238,-0.18933 3.825198,-0.43422 0.86693,-0.23882 1.6088,-0.40165 1.64861,-0.36185 0.0398,0.0398 -0.29294,0.94181 -0.73942,2.00447 -1.15034,2.73789 -2.08232,6.63764 -2.14809,8.98838 -0.0818,2.92447 0.54391,4.48961 2.62265,6.56014 1.88618,1.87872 1.95932,1.78098 -1.63707,2.18774 -2.627248,0.29715 -4.798498,0.30218 -7.011458,0.0163 z m 0.66146,-22.07078 c -0.7276,-0.17751 -1.54724,-0.44894 -1.8214,-0.60318 -0.42987,-0.24182 -0.29445,-0.34459 0.98379,-0.74665 3.6133,-1.13652 5.474628,-4.3843 3.71271,-6.47822 -0.54773,-0.65094 -3.37787,-2.38753 -3.89098,-2.38753 -0.0577,0 0.29608,0.4252 0.7862,0.94488 1.1653,1.23558 1.26271,2.94093 0.22715,3.9765 -1.44292,1.44292 -4.616398,2.01696 -6.029978,1.09075 -1.83489,-1.20227 -3.08769,-5.33668 -2.58343,-8.52567 0.33397,-2.11211 1.43916,-4.53907 2.77118,-6.08542 l 0.91164,-1.05833 -0.005,1.32291 c -0.007,1.79876 0.69127,3.40545 1.949158,4.48215 0.57911,0.49569 2.61036,1.56698 4.53292,2.39066 1.91598,0.82086 3.946748,1.81093 4.512828,2.20014 2.10347,1.44627 2.93091,3.77675 2.16241,6.09047 -1.0186,3.06671 -4.183818,4.37094 -8.218728,3.38654 z m 11.238978,-5.34592 c -0.006,-2.01058 -0.48853,-3.37241 -1.70353,-4.81176 -1.12317,-1.33056 -2.64938,-2.26353 -5.969628,-3.64921 -3.70664,-1.54693 -4.8566,-2.27466 -5.39828,-3.41616 -1.3372,-2.81792 1.06341,-5.46102 4.95999,-5.46102 0.9461,0 2.236788,0.1409 2.868198,0.31312 l 1.14802,0.31312 -1.39431,0.36079 c -3.180688,0.82305 -4.650478,2.41871 -3.760198,4.08222 0.28117,0.52536 2.0713,1.65744 3.112488,1.96833 0.59646,0.1781 0.59565,0.17214 -0.0662,-0.48966 -0.838158,-0.83816 -0.854828,-1.75101 -0.0459,-2.51099 1.81083,-1.70118 5.74849,-1.12258 7.39697,1.08693 1.53689,2.05994 2.32163,5.85109 1.77049,8.55334 -0.34321,1.68274 -1.59495,4.29564 -2.4122,5.03524 -0.48589,0.43971 -0.50035,0.40045 -0.50599,-1.37429 z m -43.744155,-2.62356 c -0.547071,-2.98065 -0.558954,-7.68915 -0.02767,-10.96513 0.223107,-1.37574 0.452448,-2.54814 0.509646,-2.60533 0.05719,-0.0572 0.340333,0.35403 0.629195,0.91383 0.759758,1.47238 2.322718,2.86874 4.139869,3.69857 1.289706,0.58897 1.955985,0.72215 3.571874,0.71397 1.704163,-0.009 2.550369,-0.20824 5.955176,-1.40478 2.182809,-0.7671 5.257499,-1.78798 6.832649,-2.26861 2.74183,-0.83663 2.84631,-0.84931 2.45097,-0.2976 -2.40291,3.35337 -3.18243,6.01469 -2.98468,10.18974 0.13204,2.78787 0.11091,2.97145 -0.30033,2.60907 -0.69712,-0.6143 -3.97893,-2.17189 -5.866318,-2.78423 -2.441342,-0.79207 -5.919165,-1.17193 -7.677189,-0.83853 -2.550959,0.48378 -5.01392,2.34463 -6.505048,4.91479 -0.242112,0.41731 -0.36571,0.0989 -0.728141,-1.87576 z m 69.563975,1.41584 c -1.38337,-2.34187 -3.56241,-3.90726 -6.23755,-4.48098 -2.68013,-0.57478 -7.78238,0.56551 -11.76389,2.62909 -1.0227,0.53005 -1.93467,0.99971 -2.02662,1.04368 -0.0919,0.044 -0.10843,-1.2052 -0.0366,-2.77594 0.18341,-4.0124 -0.72269,-7.19677 -2.72488,-9.57624 -0.38997,-0.46345 -0.65227,-0.8994 -0.5829,-0.96877 0.13226,-0.13227 5.00224,1.42746 10.39075,3.32789 4.01019,1.41432 6.29507,1.54182 8.61309,0.4806 1.79245,-0.82061 3.26499,-2.08085 4.21516,-3.60744 l 0.71662,-1.15134 0.33495,1.54157 c 0.50131,2.30729 0.66665,9.01159 0.28116,11.40123 -0.48154,2.98506 -0.57648,3.15707 -1.17926,2.13665 z m -42.898536,22.9098 c 0.90307,-0.90307 0.30278,-2.3243 -1.12408,-2.66135 -1.46702,-0.34653 -5.81477,-2.79042 -7.89669,-4.43876 -3.822514,-3.02645 -7.118378,-7.42587 -8.7374,-11.66295 -1.092423,-2.85893 -1.838196,-3.40695 -3.023442,-2.2217 -0.803791,0.80379 -0.554884,2.07789 1.046409,5.35633 2.938063,6.01531 7.831222,11.07624 13.610723,14.0774 3.8377,1.99282 5.30986,2.36565 6.12448,1.55103 z m 20.448036,-0.15402 c 7.3983,-2.75296 15.10493,-10.48327 17.51833,-17.57218 0.73226,-2.15087 0.62073,-3.14757 -0.40448,-3.61469 -1.16259,-0.52971 -1.39384,-0.27092 -2.77323,3.10354 -2.79828,6.84559 -8.46132,12.32204 -15.84385,15.32183 -0.93503,0.37994 -1.79381,0.83842 -1.90841,1.01886 -0.34128,0.53737 -0.24514,1.4522 0.19932,1.89666 0.56281,0.56281 1.39286,0.52301 3.21232,-0.15402 z M 70.959077,206.26753 c 0.288671,-0.25466 0.727049,-0.9988 0.974175,-1.65365 2.329272,-6.17221 7.639007,-11.92685 13.773132,-14.92718 15.256346,-7.46219 33.189276,-0.65683 39.533216,15.00244 0.82574,2.03826 1.6657,2.51438 2.66783,1.51224 0.7457,-0.7457 0.66345,-1.5949 -0.38992,-4.02564 -3.91711,-9.03904 -12.41179,-15.79471 -22.76112,-18.10153 -3.22455,-0.71873 -9.759698,-0.64084 -13.096876,0.15611 -9.5877,2.28963 -17.199454,8.2415 -21.524272,16.83051 -1.517351,3.01343 -1.773886,4.33198 -0.994466,5.1114 0.679548,0.67954 1.129313,0.70312 1.818301,0.0953 z m 5.589926,-18.92911 c 4.235191,-3.39113 8.981811,-5.64199 14.581341,-6.91453 10.046126,-2.28306 21.358516,0.37024 29.398206,6.8953 1.83601,1.49011 2.64103,1.71885 3.45545,0.98181 1.13793,-1.02981 0.4194,-2.08462 -3.19061,-4.68385 -4.87387,-3.50922 -10.05255,-5.61425 -16.39172,-6.66293 -3.33269,-0.55132 -10.445308,-0.41889 -13.457666,0.25057 -6.53278,1.45182 -13.812433,5.05907 -17.515208,8.67922 -0.918131,0.89764 -1.009671,1.40698 -0.407406,2.26683 0.666645,0.95177 1.589834,0.73916 3.527613,-0.81242 z"
       id="path427"
       sodipodi:nodetypes="sccccscssssssssscssssscsssssssssssccsssssssssssssssccsssssssscccscsscsssssssccccssssssssccsssscccssssscsssccsssccssssscsssssssssssssscssssscssssssssssssssssssssssssssssssssssssssssss" /><path
       style="fill:#089ae5;fill-opacity:1;stroke-width:0;stroke-linecap:round;stroke-dasharray:none"
       d="m 91.975897,127.55276 c -3.65813,-0.50637 -8.5992,-2.0437 -11.90535,-3.70415 -2.56327,-1.28735 -6.3709,-3.85672 -7.62386,-5.14453 -0.90043,-0.92548 -0.97749,-1.08776 -0.782,-1.64688 0.35183,-1.00632 1.139,-0.92294 2.92851,0.3102 3.32583,2.2918 4.55251,3.04659 6.79521,4.18115 2.20208,1.11401 2.4151,1.17607 3.95006,1.15091 2.65697,-0.0435 4.14318,-0.72087 5.51678,-2.51419 l 0.78373,-1.02321 -0.0272,-2.93482 c -0.0229,-2.4707 -0.12175,-3.2545 -0.62531,-4.95631 -1.21668,-4.11184 -3.14433,-7.4247 -5.95647,-10.23684 -2.02601,-2.026014 -3.84072,-3.288495 -6.61807,-4.60413 -2.85632,-1.353056 -4.2396,-1.667894 -7.32806,-1.667894 -2.48663,0 -2.65043,0.02935 -3.62943,0.650211 -2.90325,1.841185 -3.98143,5.663103 -2.60457,9.232643 0.65544,1.69923 1.53309,3.23687 3.25003,5.69406 0.67768,0.96986 1.3753,2.10599 1.55027,2.52474 0.29257,0.70021 0.28186,0.79762 -0.13323,1.21271 -0.68202,0.68202 -1.19965,0.55216 -2.22255,-0.55756 -3.26394,-3.54096 -6.75302,-10.89962 -8.04147,-16.959921 -0.58455,-2.749462 -0.58458,-11.36869 -4e-5,-14.2426 0.98842,-4.859697 2.99295,-9.717174 5.71325,-13.844603 1.97368,-2.994623 2.88103,-4.03208 3.52639,-4.03208 0.56307,0 1.2469,0.639471 1.2469,1.166013 0,0.189476 -0.87498,1.6471 -1.9444,3.239164 -2.24565,3.343116 -3.08389,5.051708 -3.43891,7.009503 -0.59044,3.25606 0.96785,6.478564 3.77753,7.811844 0.59471,0.28221 1.23602,0.343141 2.81635,0.267581 1.81518,-0.08679 2.57157,-0.2784 6.6974,-1.696609 10.57386,-3.63466 17.40541,-5.070239 21.62983,-4.545293 4.134173,0.513731 8.867703,1.736008 16.407273,4.236636 7.11163,2.358694 8.24789,2.536761 10.47655,1.641803 0.97355,-0.390946 2.41321,-1.828478 3.06126,-3.056747 0.53446,-1.012982 0.60007,-1.38284 0.60023,-3.38341 1.6e-4,-2.13465 -0.0419,-2.334157 -0.84708,-4.020606 -0.46599,-0.975976 -1.42102,-2.59317 -2.12229,-3.593766 -2.19189,-3.127476 -2.3088,-3.326958 -2.3088,-3.939485 0,-1.453655 1.17073,-1.510186 2.45356,-0.118472 2.36495,2.56567 5.22318,7.771053 6.63716,12.087542 1.40974,4.303554 1.69058,6.241076 1.69058,11.663455 0,5.59158 -0.25094,7.450307 -1.57173,11.641841 -1.78797,5.67412 -6.62124,13.67712 -8.26005,13.67712 -0.54499,0 -1.46295,-1.05741 -1.2416,-1.43021 0.0831,-0.1399 1.00815,-1.5178 2.05575,-3.062 1.0476,-1.54419 2.26604,-3.56569 2.70765,-4.4922 0.75767,-1.58962 0.80252,-1.8112 0.7955,-3.93069 -0.008,-2.5197 -0.37463,-3.652897 -1.65051,-5.106036 -1.21858,-1.387888 -2.2613,-1.744578 -5.10001,-1.744578 -3.02552,0 -4.42841,0.337264 -7.43672,1.787837 -6.14304,2.962103 -10.3261,7.865387 -12.27128,14.384117 -1.91579,6.42018 -1.19142,9.63248 2.54904,11.30403 1.5216,0.67998 3.97199,0.63161 5.77916,-0.11408 1.92325,-0.79358 4.28587,-2.17509 6.68671,-3.90995 2.95993,-2.13886 3.14745,-2.22337 3.70227,-1.66855 0.24916,0.24916 0.45302,0.74916 0.45302,1.11109 0,0.56851 -0.28761,0.87425 -2.11333,2.24649 -4.85045,3.64568 -10.24147,6.11542 -15.9678,7.3152 -2.10087,0.44017 -10.143433,0.65598 -12.465883,0.33451 z m 10.742983,-2.60781 c 0.4113,-0.0777 0.8006,-0.27885 0.8651,-0.44694 0.0661,-0.17218 -0.47713,-0.95432 -1.24405,-1.79128 -2.11534,-2.30852 -2.392303,-3.03794 -2.380633,-6.26976 0.0108,-2.9813 0.495313,-5.19819 1.970943,-9.01739 0.86398,-2.23615 0.8005,-2.36902 -0.90134,-1.88644 -1.750313,0.49632 -4.850713,0.54836 -7.128273,0.11965 -1.18414,-0.22289 -2.22082,-0.33743 -2.30373,-0.25452 -0.0829,0.0829 0.0318,0.5285 0.25486,0.99021 1.38567,2.86791 2.44152,7.31747 2.46438,10.38541 0.0209,2.80486 -0.56806,4.15093 -2.71487,6.20472 -0.82335,0.78768 -1.43831,1.49084 -1.36657,1.56258 0.0717,0.0717 0.92242,0.27039 1.89041,0.44145 1.76014,0.31105 8.882413,0.28571 10.593773,-0.0377 z m -3.106233,-22.02311 c 2.419913,-0.98866 3.799093,-3.87966 3.058303,-6.410764 -0.62854,-2.14761 -1.23736,-2.634838 -6.521033,-5.21874 -3.82047,-1.868344 -4.88482,-2.488507 -5.37594,-3.132405 -0.83149,-1.090138 -1.2688,-2.424141 -1.2688,-3.870486 0,-0.663916 -0.0841,-1.207119 -0.18688,-1.207119 -0.30312,0 -2.07667,2.489136 -2.64064,3.706072 -0.73418,1.584211 -1.21602,3.589591 -1.21214,5.044773 0.007,2.610326 1.12395,5.694683 2.47358,6.830319 2.5,2.33608 3.96173,3.49037 5.25762,4.13526 2.24767,0.73636 4.7952,0.78524 6.41593,0.12309 z m 6.918823,-4.285245 c 1.50977,-2.140299 2.42007,-5.268857 2.16818,-7.451627 -0.35289,-3.057885 -1.14218,-5.092975 -2.4787,-6.390981 -1.8071,-2.284124 -2.37981,-2.82317 -4.95799,-3.96957 -0.33614,-0.336137 -3.503933,-0.717206 -4.747283,-0.571074 -1.51135,0.17763 -3.22964,1.036926 -3.86902,1.934853 -0.6176,0.867344 -0.80237,2.173192 -0.45599,3.222738 0.41005,1.242468 1.74179,2.192841 5.23411,3.735237 3.693223,1.63113 5.139783,2.496489 6.207133,3.713218 1.13564,1.294583 1.65731,2.662251 1.77526,4.654156 0.11372,1.920528 0.37656,2.18308 1.1243,1.12305 z M 63.059007,96.390492 c 0.92803,-1.379173 2.34123,-2.650704 3.82517,-3.441703 1.17512,-0.626385 1.68972,-0.759222 3.26075,-0.841721 2.17908,-0.11443 4.61863,0.234587 6.78137,0.970182 1.5139,0.514911 5.07496,2.202701 5.49243,2.603174 0.48895,0.469048 0.57275,0.06057 0.57275,-2.791616 0,-4.197868 0.63741,-6.563944 2.50146,-9.285425 0.3537,-0.5164 0.64309,-1.009422 0.64309,-1.095605 0,-0.339794 -1.94919,0.198117 -7.53485,2.079379 -5.68367,1.914266 -5.88284,1.963536 -7.96327,1.97 -1.8714,0.0058 -2.29759,-0.07007 -3.46577,-0.617146 -1.8104,-0.847828 -3.11042,-1.961319 -3.99335,-3.420358 -0.40653,-0.671807 -0.80101,-1.224336 -0.87661,-1.227839 -0.24166,-0.01119 -0.65485,2.487382 -0.91279,5.519645 -0.18234,2.14363 -0.18366,3.638325 -0.005,5.502955 0.27375,2.854674 0.66462,4.918368 0.93155,4.918368 0.0969,0 0.4312,-0.379031 0.74292,-0.84229 z m 69.386983,-0.67383 c 0.62283,-2.711228 0.24244,-13.866583 -0.48823,-14.318165 -0.1007,-0.06223 -0.44279,0.330006 -0.76021,0.871643 -0.76203,1.300316 -2.55403,2.887337 -4.13926,3.665799 -1.13644,0.558073 -1.51567,0.626375 -3.41233,0.614585 -2.08162,-0.01294 -2.29433,-0.06648 -8.69961,-2.189951 -3.6112,-1.197179 -6.6687,-2.176687 -6.79446,-2.176687 -0.39816,0 -0.24941,0.470519 0.41583,1.315339 1.86539,2.368928 2.57125,4.877551 2.55289,9.07289 -0.007,1.698617 0.0657,3.088394 0.16257,3.088394 0.0969,0 1.22509,-0.499716 2.50721,-1.11048 4.03581,-1.922537 8.54613,-2.944598 10.96775,-2.485348 2.48394,0.47107 5.08905,2.19805 6.31989,4.18959 0.67632,1.094314 1.02451,0.957474 1.36796,-0.537609 z"
       id="path9840"
       sodipodi:nodetypes="sssssssscssssssssssssssssssssssssssssssssssssssssssssssssssssssssssssssssssssssssccsssccsssssssssssssssssssssssssssssssssssssss" /><path
       style="fill:#fefefe;fill-opacity:1;stroke-width:0;stroke-linecap:round;stroke-dasharray:none"
       d="m 85.620877,119.14584 c -0.83925,-0.29618 -2.45644,-1.05428 -3.59377,-1.68466 -5.85779,-3.24679 -10.32258,-7.96681 -13.26822,-14.02672 -1.66874,-3.43301 -1.78808,-4.747829 -0.48481,-5.341636 0.80961,-0.368885 1.25733,0.122081 2.25281,2.470456 2.78061,6.55952 7.18613,11.35902 13.58764,14.80274 0.92652,0.49843 2.16964,1.08526 2.76249,1.30407 0.98691,0.36426 1.95433,1.21398 1.95433,1.71657 0,0.31284 -1.06459,1.30778 -1.3936,1.30242 -0.16004,-0.003 -0.97763,-0.24706 -1.81687,-0.54324 z"
       id="path11790" /><path
       style="fill:#fefefe;fill-opacity:1;stroke-width:0;stroke-linecap:round;stroke-dasharray:none"
       d="m 105.94527,119.34703 c -0.38867,-0.27777 -0.50082,-0.54706 -0.44922,-1.0786 0.065,-0.66975 0.24061,-0.79421 3.21739,-2.28068 3.80818,-1.90163 6.14486,-3.48891 8.43174,-5.72757 2.95119,-2.88896 4.49716,-5.24695 6.81196,-10.389978 0.43134,-0.958366 0.94287,-1.803345 1.13672,-1.877732 0.41373,-0.158763 1.43441,0.453181 1.63717,0.981562 0.22035,0.574235 -0.53108,3.089518 -1.50325,5.031868 -3.09829,6.1902 -9.8223,12.49682 -15.7689,14.79007 -2.38224,0.91869 -2.88817,0.99804 -3.51361,0.55106 z"
       id="path11792" /><path
       style="fill:#fefefe;fill-opacity:1;stroke-width:0;stroke-linecap:round;stroke-dasharray:none"
       d="m 125.03135,80.477993 c -0.26452,-0.18528 -1.01928,-1.469173 -1.67724,-2.853103 -2.59264,-5.453213 -5.81254,-9.199208 -10.58242,-12.311462 -10.39774,-6.784327 -24.125623,-6.008497 -33.974483,1.920065 -3.29851,2.65538 -5.71233,5.779739 -7.86066,10.174539 -1.18196,2.417932 -1.56264,3.005789 -2.02094,3.120816 -0.82823,0.20787 -1.50512,-0.547306 -1.46428,-1.633635 0.0677,-1.7994 3.17831,-7.225398 6.05608,-10.56376 4.25494,-4.935955 11.59439,-8.994931 18.24388,-10.089506 2.6228,-0.431742 8.651033,-0.41242 11.011183,0.03529 6.22167,1.180232 12.1125,4.330949 16.74588,8.956551 2.67707,2.672577 4.32392,4.923602 5.85204,7.998917 1.24259,2.500686 1.60353,3.808905 1.25933,4.564346 -0.37664,0.826624 -0.99928,1.093552 -1.58837,0.68094 z"
       id="path11794" /><path
       style="fill:#fefefe;fill-opacity:1;stroke-width:0;stroke-linecap:round;stroke-dasharray:none"
       d="m 71.661397,62.143585 c -0.55727,-0.795605 -0.42553,-1.160769 0.85603,-2.372812 3.46925,-3.281069 10.70637,-6.829502 16.87674,-8.274831 2.61161,-0.611738 12.353473,-0.615505 15.159913,-0.0059 6.02365,1.308518 11.44082,3.804251 15.90921,7.329501 1.95864,1.54523 2.64316,2.478696 2.29488,3.12947 -0.35302,0.659617 -1.26385,0.827607 -2.112,0.389525 -0.38845,-0.200615 -1.66649,-1.069761 -2.84008,-1.931408 -7.00599,-5.143786 -16.19643,-7.551203 -24.819453,-6.501405 -6.25088,0.761008 -11.9731,3.078157 -17.39635,7.044462 -2.51902,1.842289 -3.30679,2.08157 -3.92889,1.193387 z"
       id="path11796" /></g></svg>
