<?xml version="1.0" encoding="UTF-8" standalone="no"?>
<!-- Created with Inkscape (http://www.inkscape.org/) -->

<svg
   width="210mm"
   height="297mm"
   viewBox="0 0 210 297"
   version="1.1"
   id="svg240"
   xml:space="preserve"
   inkscape:version="1.2.2 (b0a8486541, 2022-12-01)"
   sodipodi:docname="new-shofer-logo.svg"
   xmlns:inkscape="http://www.inkscape.org/namespaces/inkscape"
   xmlns:sodipodi="http://sodipodi.sourceforge.net/DTD/sodipodi-0.dtd"
   xmlns="http://www.w3.org/2000/svg"
   xmlns:svg="http://www.w3.org/2000/svg"><sodipodi:namedview
     id="namedview242"
     pagecolor="#ffffff"
     bordercolor="#666666"
     borderopacity="1.0"
     inkscape:showpageshadow="2"
     inkscape:pageopacity="0.0"
     inkscape:pagecheckerboard="0"
     inkscape:deskcolor="#d1d1d1"
     inkscape:document-units="mm"
     showgrid="false"
     inkscape:zoom="0.83294753"
     inkscape:cx="37.21723"
     inkscape:cy="531.24595"
     inkscape:window-width="1920"
     inkscape:window-height="1121"
     inkscape:window-x="0"
     inkscape:window-y="0"
     inkscape:window-maximized="1"
     inkscape:current-layer="layer1" /><defs
     id="defs237" /><g
     inkscape:label="Layer 1"
     inkscape:groupmode="layer"
     id="layer1"><rect
       style="fill:#000000;fill-opacity:1;stroke-width:0;stroke-linecap:round;stroke-dasharray:none"
       id="rect11850"
       width="44.112"
       height="44.614147"
       x="96.019989"
       y="46.278446" /><path
       style="fill:#000000;stroke-width:0.131167"
       d="m 99.264219,99.150867 c 15.138231,-0.20642 30.767301,-0.11591 45.905291,0 -0.0698,15.758983 0.34626,31.458743 0,47.213223 -14.81181,0.23453 -31.09465,0.17557 -45.905291,0 -0.144412,-15.73733 0.03485,-31.47537 0,-47.213223 z m 27.330301,43.265073 c 2.39397,-0.53761 4.70238,-1.49518 6.55818,-2.72042 1.01809,-0.67217 2.09427,-1.49716 2.26328,-1.735 0.28912,-0.40686 -0.0627,-1.11936 -0.55279,-1.11936 -0.13252,0 -0.55623,0.2546 -0.94159,0.56578 -1.62304,1.31062 -3.91357,2.57001 -4.87039,2.67786 -2.01451,0.22707 -3.63469,-1.03915 -3.63469,-2.84064 0,-1.5437 0.73724,-3.99915 1.6963,-5.64968 0.87012,-1.49747 2.76305,-3.30697 4.27179,-4.08351 1.85848,-0.95655 2.80248,-1.22864 4.26292,-1.2287 1.35234,-5e-5 1.73017,0.1263 2.40971,0.80585 0.70939,0.70939 0.93174,1.31415 0.93347,2.53886 0.001,0.98025 -0.0483,1.22018 -0.41127,1.9863 -0.35899,0.75769 -1.05471,1.84095 -2.11211,3.28862 -0.16232,0.22223 -0.29513,0.48386 -0.29513,0.5814 0,0.24617 0.47968,0.70202 0.73872,0.70202 0.76101,0 3.17612,-3.89123 4.02976,-6.49275 0.72226,-2.20114 0.91904,-3.48434 0.92526,-6.03368 0.005,-1.98568 -0.0426,-2.58821 -0.29836,-3.79026 -0.35078,-1.6486 -0.95722,-3.41669 -1.62701,-4.74357 -0.59273,-1.17422 -1.91654,-3.15362 -2.44576,-3.657 -0.34935,-0.33229 -0.4556,-0.36836 -0.76575,-0.25997 -0.27236,0.0952 -0.3698,0.22479 -0.39988,0.53186 -0.0314,0.32028 0.10712,0.60153 0.65584,1.33196 0.94083,1.25239 1.55234,2.28508 1.83164,3.09318 0.88248,2.55331 -0.78996,5.01765 -3.23471,4.76635 -0.36071,-0.0371 -1.74779,-0.45013 -3.08242,-0.9179 -4.28388,-1.50145 -7.69017,-2.32274 -9.63349,-2.32274 -2.03283,0 -5.8234,0.90996 -9.91036,2.37908 -2.05312,0.73803 -2.40082,0.82526 -3.2939,0.8264 -0.86501,9.9e-4 -1.06962,-0.0458 -1.5306,-0.35085 -1.51874,-1.00505 -1.98545,-2.8311 -1.20071,-4.69786 0.34279,-0.81543 1.25092,-2.28773 1.91693,-3.10779 0.5725,-0.70492 0.57656,-1.33365 0.01,-1.53169 -0.31015,-0.10839 -0.41639,-0.0723 -0.76571,0.25997 -0.49879,0.47447 -1.62418,2.14977 -2.3298,3.46824 -0.68678,1.28327 -1.49668,3.66472 -1.80663,5.31225 -0.35791,1.90254 -0.33053,5.28319 0.0575,7.09779 0.56242,2.63018 1.73652,5.29909 3.26856,7.42989 0.90743,1.26209 1.2231,1.50718 1.67563,1.30099 0.61261,-0.27912 0.55598,-0.7096 -0.23132,-1.75843 -1.10789,-1.47591 -1.89852,-2.94478 -2.08522,-3.87402 -0.30701,-1.52806 0.22178,-2.90633 1.44465,-3.76538 0.5432,-0.3816 0.61762,-0.3967 1.89825,-0.38538 1.12371,0.01 1.50978,0.0735 2.46005,0.40514 2.97008,1.03652 5.30231,3.14924 6.61657,5.99378 0.67612,1.46337 1.03556,2.96825 1.04034,4.35571 0.004,1.10685 -0.0231,1.23055 -0.38019,1.74626 -0.56668,0.81842 -1.34263,1.22282 -2.48245,1.29376 -0.92271,0.0574 -0.95924,0.0472 -2.37993,-0.66742 -0.79356,-0.39915 -1.99904,-1.14296 -2.67886,-1.65291 -1.28457,-0.96359 -1.55687,-1.06679 -1.90261,-0.72106 -0.51348,0.51348 -0.1998,0.96628 1.5191,2.19286 2.32024,1.65569 4.64385,2.63276 7.71879,3.24573 1.5923,0.31741 5.52885,0.27854 7.0805,-0.0699 z m -5.5065,-1.11155 c -0.39678,-0.0513 -0.94316,-0.13481 -1.21417,-0.18566 l -0.49276,-0.0925 0.77114,-0.71393 c 1.02521,-0.94916 1.38184,-1.74771 1.37447,-3.07768 -0.008,-1.4834 -0.57974,-3.84938 -1.24477,-5.15292 -0.14385,-0.28197 -0.24016,-0.53406 -0.21402,-0.5602 0.0261,-0.0261 0.39917,0.0493 0.82895,0.16773 0.4407,0.12141 1.26755,0.21527 1.89633,0.21527 0.62879,0 1.45563,-0.0939 1.89633,-0.21527 0.42978,-0.11839 0.79756,-0.19911 0.8173,-0.17938 0.0197,0.0197 -0.14522,0.4669 -0.36657,0.99371 -0.57028,1.3573 -1.0323,3.2906 -1.06491,4.45598 -0.0405,1.4498 0.26964,2.22571 1.30018,3.25217 0.93507,0.93138 0.97133,0.88292 -0.81158,1.08457 -1.30245,0.14732 -2.37885,0.14981 -3.47592,0.008 z m 0.32792,-10.94156 c -0.36071,-0.088 -0.76704,-0.22256 -0.90296,-0.29902 -0.2131,-0.11988 -0.14597,-0.17083 0.48772,-0.37015 1.79128,-0.56343 2.71403,-2.17351 1.84057,-3.21157 -0.27154,-0.3227 -1.67458,-1.18361 -1.92895,-1.18361 -0.0286,0 0.14678,0.21079 0.38976,0.46842 0.57769,0.61253 0.62598,1.45796 0.1126,1.97134 -0.71532,0.71533 -2.28857,0.99991 -2.98935,0.54074 -0.90964,-0.59602 -1.53072,-2.64565 -1.28073,-4.22659 0.16557,-1.04707 0.71346,-2.25024 1.37381,-3.01684 l 0.45194,-0.52466 -0.002,0.65583 c -0.004,0.89173 0.3427,1.68825 0.9663,2.22202 0.28709,0.24574 1.29408,0.77683 2.24718,1.18516 0.94985,0.40694 1.9566,0.89777 2.23723,1.09072 1.04279,0.71699 1.453,1.87232 1.07201,3.01934 -0.50497,1.52032 -2.07412,2.16689 -4.07442,1.67887 z m 5.57171,-2.65023 c -0.003,-0.99674 -0.24219,-1.67187 -0.84453,-2.38542 -0.55681,-0.65962 -1.31342,-1.12214 -2.95943,-1.80909 -1.83756,-0.76689 -2.40765,-1.12766 -2.67619,-1.69356 -0.66291,-1.39698 0.52718,-2.70729 2.45891,-2.70729 0.46903,0 1.10888,0.0698 1.4219,0.15523 l 0.56913,0.15523 -0.69123,0.17886 c -1.57682,0.40802 -2.30546,1.19907 -1.86411,2.02375 0.13939,0.26045 1.02685,0.82168 1.54301,0.9758 0.2957,0.0883 0.2953,0.0853 -0.0328,-0.24275 -0.41551,-0.41552 -0.42378,-0.86806 -0.0228,-1.24482 0.89772,-0.84336 2.84981,-0.55652 3.66704,0.53885 0.76191,1.02121 1.15095,2.90066 0.87772,4.2403 -0.17015,0.83422 -0.7907,2.12956 -1.19585,2.49621 -0.24088,0.21799 -0.24804,0.19853 -0.25084,-0.6813 z m -21.6861,-1.30062 c -0.27121,-1.47766 -0.2771,-3.81189 -0.0137,-5.43595 0.1106,-0.68202 0.2243,-1.26324 0.25265,-1.29159 0.0284,-0.0284 0.16872,0.17551 0.31192,0.45303 0.37665,0.72993 1.15149,1.42217 2.05234,1.83356 0.63937,0.29198 0.96968,0.35801 1.77075,0.35395 0.84484,-0.004 1.26434,-0.10323 2.95227,-0.69642 1.08212,-0.38029 2.6064,-0.88639 3.38727,-1.12466 1.35926,-0.41476 1.41106,-0.42104 1.21507,-0.14753 -1.19124,1.66243 -1.57769,2.98177 -1.47965,5.05155 0.0655,1.38208 0.055,1.47309 -0.14889,1.29344 -0.3456,-0.30454 -1.97255,-1.07671 -2.90822,-1.38028 -1.21029,-0.39267 -2.93441,-0.58098 -3.80595,-0.4157 -1.26464,0.23983 -2.48565,1.16235 -3.22487,2.4365 -0.12003,0.20688 -0.1813,0.049 -0.36097,-0.9299 z m 34.48623,0.7019 c -0.6858,-1.16098 -1.76606,-1.93702 -3.09225,-2.22144 -1.32867,-0.28495 -3.85811,0.28035 -5.83193,1.30336 -0.50701,0.26278 -0.95911,0.49561 -1.0047,0.51741 -0.0456,0.0218 -0.0538,-0.59748 -0.0181,-1.37617 0.0909,-1.98914 -0.35827,-3.56779 -1.35085,-4.74741 -0.19333,-0.22975 -0.32337,-0.44587 -0.28898,-0.48026 0.0656,-0.0656 2.47986,0.70766 5.1512,1.64979 1.98805,0.70115 3.12077,0.76436 4.26993,0.23826 0.8886,-0.40682 1.61861,-1.03158 2.08966,-1.78838 l 0.35526,-0.57078 0.16605,0.76423 c 0.24853,1.14384 0.33049,4.46748 0.13939,5.65215 -0.23872,1.47983 -0.28579,1.56511 -0.58462,1.05924 z m -21.26688,11.3575 c 0.44769,-0.4477 0.1501,-1.15227 -0.55726,-1.31937 -0.72728,-0.17179 -2.88267,-1.38334 -3.91478,-2.2005 -1.895,-1.50036 -3.52892,-3.68137 -4.33155,-5.78189 -0.54157,-1.41731 -0.91128,-1.68899 -1.49887,-1.10141 -0.39847,0.39848 -0.27508,1.03011 0.51876,2.65539 1.45654,2.98209 3.88232,5.49103 6.7475,6.97885 1.90253,0.98794 2.63235,1.17277 3.0362,0.76893 z m 10.13708,-0.0764 c 3.6677,-1.36478 7.48825,-5.19707 8.68469,-8.71138 0.36301,-1.06629 0.30772,-1.5604 -0.20052,-1.79198 -0.57636,-0.2626 -0.691,-0.13431 -1.37483,1.53858 -1.38724,3.39369 -4.19468,6.10863 -7.85456,7.59577 -0.46354,0.18836 -0.88928,0.41565 -0.94609,0.5051 -0.16919,0.2664 -0.12153,0.71992 0.0988,0.94027 0.27901,0.27901 0.6905,0.25928 1.5925,-0.0764 z m -19.53734,-19.22855 c 0.14311,-0.12624 0.36043,-0.49515 0.48295,-0.81979 1.15473,-3.05987 3.78702,-5.91272 6.82801,-7.40013 7.56331,-3.69937 16.45353,-0.32562 19.59853,7.43744 0.40936,1.01046 0.82577,1.2465 1.32257,0.74969 0.36968,-0.36968 0.32891,-0.79067 -0.1933,-1.99571 -1.9419,-4.48109 -6.15313,-7.8302 -11.28379,-8.9738 -1.59857,-0.35631 -4.83836,-0.3177 -6.49276,0.0774 -4.75309,1.13508 -8.5266,4.08571 -10.67062,8.3437 -0.75223,1.4939 -0.87941,2.14757 -0.49301,2.53397 0.33689,0.33688 0.55986,0.34857 0.90142,0.0472 z m 2.7712,-9.38407 c 2.09959,-1.68115 4.45272,-2.79701 7.22868,-3.42787 4.98035,-1.13183 10.58845,0.18354 14.57411,3.41833 0.9102,0.73872 1.30929,0.85212 1.71304,0.48673 0.56412,-0.51052 0.20791,-1.03344 -1.58174,-2.32201 -2.41622,-1.73969 -4.98354,-2.78325 -8.12617,-3.30314 -1.65218,-0.27331 -5.17825,-0.20766 -6.67162,0.12422 -3.23862,0.71974 -6.8475,2.50803 -8.68314,4.30271 -0.45516,0.44501 -0.50054,0.69751 -0.20197,1.12378 0.33049,0.47184 0.78816,0.36644 1.74881,-0.40275 z"
       id="path427"
       sodipodi:nodetypes="sccccscssssssssscssssscsssssssssssccsssssssssssssssccsssssssscccscsscsssssssccccssssssssccsssscccssssscsssccsssccssssscsssssssssssssscssssscssssssssssssssssssssssssssssssssssssssssss" /><path
       style="fill:#089ae5;fill-opacity:1;stroke-width:0;stroke-linecap:round;stroke-dasharray:none"
       d="m 115.21064,88.338877 c -1.89313,-0.262053 -4.45019,-1.05764 -6.16116,-1.916942 -1.32653,-0.666219 -3.29702,-1.995899 -3.94544,-2.662356 -0.46599,-0.478947 -0.50587,-0.562929 -0.4047,-0.85228 0.18208,-0.520783 0.58945,-0.477633 1.51554,0.160532 1.72116,1.186034 2.35598,1.576647 3.5166,2.163795 1.13961,0.576514 1.24985,0.60863 2.04421,0.59561 1.37501,-0.02251 2.14414,-0.373059 2.855,-1.301124 l 0.40559,-0.529523 -0.0141,-1.518805 c -0.0118,-1.278616 -0.063,-1.684242 -0.32361,-2.564949 -0.62964,-2.127927 -1.62722,-3.842371 -3.08254,-5.297688 -1.04848,-1.048486 -1.98762,-1.701835 -3.42493,-2.382692 -1.47818,-0.700223 -2.19404,-0.863155 -3.79236,-0.863155 -1.28686,0 -1.37163,0.01519 -1.87827,0.336492 -1.50247,0.952835 -2.06044,2.930723 -1.3479,4.778003 0.3392,0.879372 0.79339,1.675119 1.68193,2.946744 0.35071,0.501915 0.71173,1.089875 0.80228,1.306584 0.15141,0.362367 0.14587,0.412777 -0.0689,0.627592 -0.35296,0.352953 -0.62084,0.285749 -1.1502,-0.288544 -1.68913,-1.83249 -3.494769,-5.640684 -4.161557,-8.776963 -0.302512,-1.422879 -0.302528,-5.883433 -2.1e-5,-7.370716 0.511519,-2.514951 1.548887,-5.028754 2.956678,-7.164747 1.0214,-1.549754 1.49096,-2.08665 1.82495,-2.08665 0.29139,0 0.64528,0.330934 0.64528,0.603426 0,0.09806 -0.45281,0.852394 -1.00625,1.676306 -1.16215,1.730102 -1.59595,2.614319 -1.77968,3.627501 -0.30556,1.68505 0.50088,3.352735 1.95492,4.042723 0.30777,0.146047 0.63966,0.17758 1.4575,0.138477 0.93937,-0.04492 1.33081,-0.144076 3.46598,-0.878016 5.4721,-1.88098 9.00751,-2.623909 11.1937,-2.352243 2.13948,0.265862 4.58914,0.898405 8.49096,2.192509 3.68035,1.220653 4.26838,1.312805 5.42174,0.849653 0.50382,-0.202319 1.24886,-0.946259 1.58424,-1.581903 0.27659,-0.52423 0.31054,-0.715636 0.31062,-1.750955 8e-5,-1.104707 -0.0217,-1.207954 -0.43837,-2.080712 -0.24116,-0.505079 -0.7354,-1.341996 -1.09831,-1.859817 -1.13433,-1.618506 -1.19483,-1.72174 -1.19483,-2.038731 0,-0.752283 0.60586,-0.781539 1.26974,-0.06131 1.22389,1.327765 2.70306,4.021613 3.43481,6.255447 0.72956,2.227141 0.8749,3.229832 0.8749,6.035978 0,2.89371 -0.12987,3.855623 -0.81339,6.024792 -0.9253,2.936425 -3.42657,7.078074 -4.27468,7.078074 -0.28203,0 -0.75709,-0.547223 -0.64254,-0.740151 0.043,-0.0724 0.52173,-0.78548 1.06388,-1.584622 0.54214,-0.799137 1.1727,-1.845287 1.40124,-2.324767 0.3921,-0.822648 0.41531,-0.937318 0.41168,-2.034179 -0.004,-1.303975 -0.19388,-1.890418 -0.85416,-2.642435 -0.63063,-0.718249 -1.17025,-0.90284 -2.63932,-0.90284 -1.56574,0 -2.29175,0.174538 -3.84859,0.925227 -3.17909,1.532924 -5.34388,4.070432 -6.35053,7.443953 -0.99145,3.32252 -0.61658,4.984923 1.31916,5.849971 0.78744,0.351897 2.05555,0.326865 2.99078,-0.05904 0.99531,-0.410687 2.21799,-1.125635 3.46045,-2.023446 1.5318,-1.106886 1.62885,-1.150621 1.91597,-0.863495 0.12895,0.128944 0.23445,0.3877 0.23445,0.575003 0,0.29421 -0.14885,0.452434 -1.09368,1.162585 -2.51016,1.886683 -5.30008,3.164803 -8.26353,3.785704 -1.08722,0.227793 -5.24934,0.339477 -6.45124,0.173113 z m 5.55962,-1.349573 c 0.21285,-0.04021 0.41432,-0.144308 0.4477,-0.231297 0.0342,-0.08911 -0.24692,-0.493872 -0.64381,-0.927009 -1.09472,-1.194687 -1.23805,-1.57217 -1.23201,-3.244676 0.006,-1.542858 0.25633,-2.690125 1.01999,-4.666607 0.44712,-1.157234 0.41427,-1.225996 -0.46646,-0.976255 -0.9058,0.256851 -2.5103,0.283783 -3.68896,0.06192 -0.61281,-0.115348 -1.1493,-0.174624 -1.19221,-0.131717 -0.0429,0.0429 0.0165,0.273505 0.13189,0.512445 0.7171,1.484178 1.26352,3.786879 1.27535,5.374574 0.0108,1.451549 -0.29398,2.148156 -1.40498,3.211017 -0.42609,0.407634 -0.74434,0.771528 -0.70722,0.808654 0.0371,0.03711 0.47737,0.13993 0.97831,0.228456 0.9109,0.160972 4.59676,0.147858 5.48241,-0.01951 z m -1.60751,-11.397223 c 1.25233,-0.511644 1.96607,-2.007771 1.5827,-3.317647 -0.32527,-1.111414 -0.64034,-1.363561 -3.37471,-2.700761 -1.97714,-0.96689 -2.52795,-1.287832 -2.78211,-1.621057 -0.43031,-0.564159 -0.65662,-1.254522 -0.65662,-2.003023 0,-0.343584 -0.0435,-0.624698 -0.0967,-0.624698 -0.15687,0 -1.0747,1.288157 -1.36657,1.917936 -0.37994,0.819848 -0.6293,1.857657 -0.62729,2.610731 0.004,1.350875 0.58165,2.947066 1.2801,3.534772 1.29378,1.208949 2.05025,1.806308 2.72089,2.140046 1.16319,0.381075 2.48157,0.406371 3.32032,0.0637 z m 3.58057,-2.217666 c 0.78132,-1.10763 1.25241,-2.726697 1.12206,-3.856306 -0.18263,-1.582492 -0.59109,-2.635676 -1.28276,-3.307409 -0.93519,-1.182062 -1.23158,-1.461025 -2.56582,-2.0543 -0.17395,-0.173955 -1.81332,-0.371163 -2.45677,-0.295538 -0.78214,0.09193 -1.67138,0.536622 -2.00227,1.00131 -0.31961,0.448861 -0.41523,1.124653 -0.23598,1.667805 0.21221,0.642992 0.9014,1.134822 2.70872,1.93303 1.91128,0.844129 2.6599,1.291963 3.21226,1.921635 0.58771,0.669962 0.85768,1.377747 0.91872,2.408581 0.0589,0.993896 0.19488,1.12977 0.58184,0.581192 z M 100.2458,72.21203 c 0.48027,-0.713739 1.21161,-1.371771 1.97957,-1.781123 0.60814,-0.324161 0.87445,-0.392906 1.68748,-0.4356 1.1277,-0.05922 2.39019,0.121401 3.50944,0.50208 0.78346,0.266473 2.62635,1.139925 2.8424,1.347174 0.25303,0.242738 0.2964,0.03135 0.2964,-1.444695 0,-2.172446 0.32987,-3.396919 1.29454,-4.805318 0.18304,-0.267243 0.3328,-0.522388 0.3328,-0.566989 0,-0.175847 -1.00873,0.102528 -3.89937,1.076104 -2.94137,0.990655 -3.04444,1.016153 -4.12109,1.019498 -0.96847,0.003 -1.18903,-0.03626 -1.79358,-0.31938 -0.9369,-0.438761 -1.60968,-1.015006 -2.0666,-1.770076 -0.21039,-0.347669 -0.414535,-0.633609 -0.453659,-0.635422 -0.125062,-0.0058 -0.338893,1.28725 -0.47238,2.856483 -0.09436,1.109354 -0.09505,1.882876 -0.0026,2.847845 0.141669,1.477328 0.343949,2.545314 0.482088,2.545314 0.05015,0 0.223151,-0.196153 0.384471,-0.435895 z m 35.90859,-0.348715 c 0.32233,-1.403093 0.12547,-7.176123 -0.25266,-7.409822 -0.0521,-0.0322 -0.22915,0.170782 -0.39342,0.451086 -0.39436,0.672929 -1.32174,1.494231 -2.14212,1.897095 -0.58812,0.288809 -0.78437,0.324156 -1.76592,0.318055 -1.07726,-0.0067 -1.18734,-0.03441 -4.50215,-1.133326 -1.86884,-0.619555 -3.45113,-1.126462 -3.51621,-1.126462 -0.20606,0 -0.12908,0.243499 0.21519,0.680704 0.96537,1.225948 1.33066,2.524191 1.32115,4.695329 -0.004,0.879055 0.034,1.598281 0.0841,1.598281 0.0501,0 0.634,-0.258609 1.29751,-0.574687 2.08858,-0.994936 4.42272,-1.523865 5.67594,-1.286197 1.28547,0.243784 2.63364,1.137517 3.27062,2.168163 0.35,0.56632 0.53019,0.495504 0.70793,-0.278219 z"
       id="path9840"
       sodipodi:nodetypes="sssssssscssssssssssssssssssssssssssssssssssssssssssssssssssssssssssssssssssssssssccsssccsssssssssssssssssssssssssssssssssssssss" /><path
       style="fill:#fefefe;fill-opacity:1;stroke-width:0;stroke-linecap:round;stroke-dasharray:none"
       d="m 111.92184,83.988195 c -0.43432,-0.153277 -1.27124,-0.545603 -1.85982,-0.871832 -3.03148,-1.680253 -5.34206,-4.122919 -6.86646,-7.258995 -0.8636,-1.776624 -0.92536,-2.457059 -0.2509,-2.764361 0.41898,-0.190902 0.65068,0.06318 1.16586,1.278491 1.439,3.39463 3.71891,5.878428 7.03176,7.660595 0.47949,0.257943 1.12282,0.561635 1.42963,0.674872 0.51073,0.188509 1.01138,0.628249 1.01138,0.888345 0,0.161899 -0.55093,0.676792 -0.7212,0.674018 -0.0828,-0.0016 -0.50594,-0.127856 -0.94025,-0.281133 z"
       id="path11790" /><path
       style="fill:#fefefe;fill-opacity:1;stroke-width:0;stroke-linecap:round;stroke-dasharray:none"
       d="m 122.43995,84.092313 c -0.20114,-0.143749 -0.25918,-0.28311 -0.23247,-0.558188 0.0336,-0.346604 0.12452,-0.411013 1.66504,-1.18028 1.97077,-0.984116 3.18003,-1.805552 4.36352,-2.964086 1.52728,-1.495071 2.32734,-2.715359 3.52527,-5.376938 0.22323,-0.495965 0.48795,-0.933252 0.58827,-0.971748 0.21411,-0.08216 0.74232,0.234526 0.84725,0.50797 0.11404,0.297173 -0.27484,1.598862 -0.77795,2.604052 -1.6034,3.203502 -5.08315,6.467254 -8.16059,7.654038 -1.23284,0.475433 -1.49466,0.516498 -1.81834,0.28518 z"
       id="path11792" /><path
       style="fill:#fefefe;fill-opacity:1;stroke-width:0;stroke-linecap:round;stroke-dasharray:none"
       d="m 132.31723,63.977121 c -0.13689,-0.09588 -0.52749,-0.760315 -0.86799,-1.476515 -1.34172,-2.822103 -3.00806,-4.7607 -5.47653,-6.371329 -5.38096,-3.51097 -12.4853,-3.109469 -17.5822,0.993657 -1.70702,1.374191 -2.9562,2.991084 -4.06799,5.265446 -0.61168,1.251308 -0.80868,1.555531 -1.04586,1.615059 -0.42862,0.107575 -0.77892,-0.283237 -0.75778,-0.845425 0.035,-0.931212 1.64481,-3.73923 3.13409,-5.466873 2.20198,-2.554416 6.00024,-4.654984 9.44143,-5.22144 1.35733,-0.223432 4.47701,-0.213432 5.69842,0.01826 3.21979,0.610784 6.26836,2.241318 8.66619,4.635122 1.38542,1.383091 2.23768,2.548023 3.0285,4.139536 0.64306,1.294135 0.82985,1.971154 0.65172,2.362103 -0.19492,0.427788 -0.51714,0.565927 -0.822,0.352395 z"
       id="path11794" /><path
       style="fill:#fefefe;fill-opacity:1;stroke-width:0;stroke-linecap:round;stroke-dasharray:none"
       d="m 104.69764,54.488845 c -0.28839,-0.411735 -0.22022,-0.600711 0.44301,-1.227958 1.79537,-1.697993 5.54067,-3.534349 8.73391,-4.282324 1.35154,-0.316582 6.39307,-0.318531 7.84544,-0.0031 3.11731,0.677174 5.92076,1.968746 8.2332,3.793105 1.01362,0.799675 1.36787,1.282755 1.18763,1.619538 -0.18269,0.34136 -0.65406,0.428297 -1.09298,0.201584 -0.20103,-0.103821 -0.86243,-0.553614 -1.46978,-0.999527 -3.62568,-2.661971 -8.38185,-3.907838 -12.84436,-3.364555 -3.23491,0.393831 -6.19623,1.592983 -9.00282,3.645594 -1.30363,0.953406 -1.71131,1.077237 -2.03325,0.617592 z"
       id="path11796" /><path
       style="fill:#000000;stroke-width:0.092209"
       d="m 28.576495,55.334286 c 0,-0.0984 0.0355,-0.20092 0.07889,-0.22773 0.04339,-0.0268 0.0593,0.0537 0.03536,0.17897 -0.05201,0.27206 -0.114244,0.29863 -0.114244,0.0488 z M 6.9534431,53.426406 c -0.549704,-0.085 -1.296597,-0.33315 -1.681648,-0.5588 -0.216182,-0.12669 -0.393058,-0.24834 -0.393058,-0.27032 0,-0.0681 0.553925,-1.14123 0.589073,-1.14123 0.01824,0 0.22136,0.10519 0.451378,0.23375 0.548771,0.30671 1.644873,0.53528 2.213634,0.4616 0.574582,-0.0744 0.848194,-0.20446 0.99075,-0.47083 0.0965,-0.18032 0.09054,-0.25453 -0.03597,-0.44762 -0.209458,-0.31967 -0.337172,-0.37472 -1.588796,-0.68482 -0.604237,-0.1497 -1.204688,-0.31379 -1.334334,-0.36463 -0.39948,-0.15666 -0.844344,-0.59263 -1.027706,-1.00715 -0.151033,-0.34143 -0.161622,-0.46761 -0.07746,-0.92289 0.120007,-0.64918 0.451004,-1.08663 1.082106,-1.43012 0.944211,-0.5139 2.731562,-0.52457 3.8655259,-0.0231 0.273108,0.12078 0.49656,0.23747 0.49656,0.25931 0,0.0415 -0.464008,1.10834 -0.497097,1.1429 -0.01045,0.0109 -0.2670169,-0.0803 -0.5701549,-0.20279 -1.107222,-0.44723 -2.25062,-0.3829 -2.645091,0.14882 -0.389835,0.52546 -0.01597,0.81485 1.493444,1.15601 1.8128429,0.40974 2.4040399,0.85694 2.4776189,1.87416 0.02126,0.29396 -0.0096,0.68076 -0.06863,0.85957 -0.153981,0.46656 -0.8108209,1.03512 -1.4031019,1.21451 -0.501807,0.15199 -1.835834,0.25111 -2.337039,0.17365 z m 15.4808829,-0.079 c -1.882185,-0.40943 -3.028461,-1.97656 -2.796573,-3.82331 0.205535,-1.63689 1.371609,-2.78187 3.106511,-3.05031 1.764446,-0.27302 3.396606,0.49092 4.099917,1.91897 0.252354,0.5124 0.308474,0.74217 0.335372,1.37309 0.0485,1.13761 -0.209676,1.83889 -0.946291,2.57043 -0.638228,0.63384 -0.99567,0.82685 -1.877184,1.01366 -0.751399,0.15924 -1.180704,0.15867 -1.921752,-0.002 z m 2.154973,-1.58288 c 1.128305,-0.69757 1.281878,-2.46077 0.297722,-3.41812 -0.886205,-0.86206 -2.606606,-0.69073 -3.267512,0.32541 -0.796277,1.22429 -0.302107,2.80575 1.032358,3.30379 0.54777,0.20444 1.418853,0.10953 1.937432,-0.21108 z m 21.374543,1.4435 c -0.06518,-0.0761 -0.375443,-0.52378 -0.689462,-0.9949 l -0.570949,-0.85659 -0.755891,0.0267 -0.755894,0.0267 0.02171,0.94515 0.02171,0.94514 h -0.828544 -0.828548 v -3.36563 -3.36564 h 2.027614 c 1.778526,0 2.085042,0.0218 2.495095,0.17763 1.037743,0.39432 1.560503,1.12481 1.562197,2.183 0.0014,0.91901 -0.275871,1.4891 -0.937407,1.92689 -0.193941,0.12834 -0.35262,0.26816 -0.35262,0.31072 0,0.0426 0.327485,0.53715 0.727742,1.09911 l 0.727746,1.02173 -0.872997,0.0291 c -0.688413,0.023 -0.898057,-9e-5 -0.991513,-0.10917 z m -0.541719,-3.25549 c 0.421094,-0.22223 0.581902,-0.50002 0.581902,-1.0052 0,-0.34894 -0.05205,-0.49713 -0.253574,-0.72194 -0.216091,-0.24105 -0.352414,-0.2965 -0.92223,-0.3751 -0.367758,-0.0507 -0.878844,-0.0797 -1.135742,-0.0644 l -0.467091,0.0279 -0.02377,1.01431 c -0.01307,0.55786 -0.0055,1.08681 0.01687,1.17543 0.03594,0.14253 0.148537,0.15785 0.975085,0.13268 0.652335,-0.0199 1.023234,-0.0753 1.228532,-0.18366 z m -33.504405,-0.0112 -0.0035,-3.35883 0.667618,-0.0299 c 1.045,-0.0467 0.96452,-0.15637 0.96452,1.31394 v 1.28416 h 1.613661 1.613661 l -1.85e-4,-1.31397 -1.84e-4,-1.31398 0.830093,0.0296 0.830095,0.0296 v 3.35909 3.35909 h -0.829882 -0.829883 v -1.38313 -1.38314 H 15.160071 13.54641 v 1.38314 1.38313 h -0.812617 -0.81261 l -0.0035,-3.35883 z m 16.474358,-0.007 v -3.36563 h 2.674067 2.674063 v 0.59936 0.59936 h -1.844181 -1.844184 l -9.4e-5,0.89904 -9.1e-5,0.89904 1.60605,-0.0271 1.606049,-0.0271 0.03077,0.64972 0.03077,0.64972 -1.636715,-1.8e-4 -1.636757,-2.3e-4 v 1.24482 1.24482 h -0.829882 -0.829883 z m 6.454641,-0.0569 v -3.4225 l 0.207469,0.0556 c 0.114112,0.0306 1.317441,0.0562 2.674067,0.0569 l 2.466598,10e-4 v 0.59745 0.59745 l -1.867239,0.025 -1.867234,0.0249 v 0.69157 0.69157 l 1.659765,0.0251 1.659765,0.0251 -0.01384,0.43591 c -0.0076,0.23975 -0.01798,0.50757 -0.02307,0.59515 -0.0083,0.14351 -0.170863,0.16172 -1.645926,0.18442 l -1.636711,0.0252 v 0.78378 0.78378 h 1.959477 1.959482 l -3.5e-5,0.62241 -3.5e-5,0.62241 H 37.612975 34.8467 Z m -9.405336,-6.82407 c -2.129514,-0.21478 -4.313724,-0.96244 -6.191132,-2.11923 -1.638594,-1.00965 -3.285429,-2.55392 -4.440505,-4.16397 -1.080878,-1.50663 -1.309814,-2.14339 -0.926782,-2.57777 0.199413,-0.22615 4.018451,-2.76026 4.67545,-3.10239 0.412884,-0.215 0.466606,-0.22252 0.691569,-0.0968 0.1413,0.079 0.399929,0.42604 0.61478,0.82494 1.251493,2.32356 3.051954,3.86287 5.195277,4.44171 0.903814,0.24409 2.46461,0.26324 3.332038,0.0409 2.484622,-0.63691 4.047268,-2.58784 3.830975,-4.78287 -0.21259,-2.15745 -1.19577,-3.517952 -5.464822,-7.562067 -1.245575,-1.17994 -2.551462,-2.49805 -2.901977,-2.929125 -1.205817,-1.482968 -1.571446,-2.649728 -1.238099,-3.950907 0.182799,-0.713537 0.182781,-0.710034 0.0031,-0.560887 -0.270472,0.224473 -0.655594,0.865932 -0.820103,1.365963 -0.378925,1.15175 -0.01544,2.313958 1.099202,3.514531 0.353205,0.380437 0.810098,0.872626 1.01532,1.093754 0.337888,0.364079 0.351354,0.39612 0.142605,0.339227 -1.059737,-0.288819 -2.274699,-1.29384 -2.757868,-2.281328 -0.770825,-1.575384 -0.396944,-3.501963 0.915395,-4.71696 0.61631,-0.570593 1.668439,-1.119718 2.465862,-1.28698 0.370163,-0.07764 0.523419,-0.157256 0.577737,-0.300117 0.04066,-0.106943 0.205163,-0.304871 0.365567,-0.439842 0.554499,-0.46658 1.52162,-0.231775 1.801179,0.437306 0.100077,0.239515 0.199914,0.323048 0.43992,0.368074 0.847469,0.158985 2.245313,1.02673 3.654986,2.268913 0.631279,0.556281 0.767897,0.638915 0.920899,0.557033 0.268023,-0.143442 0.913263,-0.116136 1.195511,0.05059 0.246695,0.145725 0.262064,0.138026 2.227247,-1.116003 1.088359,-0.694509 1.996816,-1.27991 2.018793,-1.30089 0.153075,-0.146154 -0.360454,-0.2152 -1.904061,-0.256017 l -1.771894,-0.04685 -0.194819,0.273599 c -0.474764,0.666743 -1.367887,0.730168 -1.912565,0.135817 -0.276328,-0.301525 -0.306753,-0.387073 -0.284793,-0.800839 l 0.02457,-0.463251 -0.640468,-0.416994 c -0.813423,-0.529601 -1.66324,-0.917067 -2.484651,-1.132859 -1.143734,-0.300468 -1.113462,-0.299337 -1.228944,-0.04589 -0.16584,0.363976 -0.63636,0.596653 -1.207354,0.597046 -0.472844,3.84e-4 -0.521589,-0.02229 -0.900514,-0.417753 -0.399379,-0.416814 -0.401808,-0.417795 -0.791024,-0.319158 -1.182837,0.299759 -1.62504,0.490023 -1.730474,0.744562 -0.224379,0.541702 -1.022746,0.574885 -1.272926,0.05291 -0.256762,-0.53572 0.138776,-1.121895 0.708679,-1.050243 0.218099,0.02742 0.612906,-0.04818 1.120527,-0.214562 0.431079,-0.141296 0.970502,-0.284508 1.198722,-0.31825 0.363528,-0.05375 0.434606,-0.103362 0.573653,-0.400421 0.207808,-0.443953 0.640187,-0.69406 1.199879,-0.69406 0.518188,0 0.858596,0.212346 1.127403,0.703273 0.160839,0.29374 0.241403,0.342063 0.730829,0.438351 1.131171,0.222544 2.8672,0.983972 3.709754,1.627106 0.340411,0.259841 0.425109,0.285467 0.722121,0.218481 0.437474,-0.09867 0.936072,0.04196 1.214697,0.342603 0.120566,0.130091 0.219207,0.272823 0.219207,0.317183 0,0.04436 0.840258,0.06942 1.867235,0.05569 1.180397,-0.01578 1.861359,-0.05888 1.851259,-0.117172 -0.01575,-0.09085 -0.474203,-0.389738 -2.473668,-1.612673 -1.469184,-0.898596 -1.401068,-0.870541 -1.676093,-0.690336 -0.324254,0.212458 -1.101418,0.198138 -1.401385,-0.02582 -0.394935,-0.294543 -0.588799,-0.636178 -0.635203,-1.119085 l -0.0447,-0.4652021 -0.841463,-0.320959 c -0.999829,-0.381365 -1.626396,-0.563297 -2.538536,-0.737098 l -0.675198,-0.128653 -0.265733,0.302652 c -0.548494,0.624702 -1.247067,0.654263 -1.824139,0.07719 -0.315304,-0.315305 -0.342275,-0.32392 -0.833482,-0.266188 -1.744418,0.205022 -3.849223,1.081311 -5.354435,2.2292011 -0.417069,0.31806 -0.437656,0.353625 -0.350097,0.604796 0.133646,0.38338 0.01446,0.863355 -0.30462,1.226772 -0.333379,0.379698 -0.79132,0.547565 -1.272148,0.466329 -0.438097,-0.07401 -0.536228,0.03433 -1.192689,1.316864 -0.461021,0.900696 -0.767579,1.758539 -0.889164,2.488146 -0.05919,0.355208 -0.04159,0.413946 0.175171,0.584449 0.302381,0.237853 0.514025,0.639863 0.513577,0.975521 -4.53e-4,0.315688 -0.282208,0.796729 -0.581642,0.992924 -0.208635,0.136702 -0.216758,0.17402 -0.135357,0.62188 0.180254,0.99174 0.904037,2.634891 1.520836,3.452642 0.203101,0.269274 0.243233,0.284501 0.536467,0.203532 0.898053,-0.247963 1.799958,0.583742 1.663507,1.534027 l -0.05296,0.368836 0.684552,0.488011 c 1.19121,0.849196 2.517066,1.449036 4.429192,2.003835 l 1.102461,0.31988 0.286657,-0.277839 c 0.336689,-0.326332 0.808941,-0.485296 1.196791,-0.402847 0.595487,0.126589 1.060406,0.663046 1.060406,1.223566 0,0.25016 0.06771,0.31042 0.756299,0.6731 0.889181,0.46833 1.872155,1.34929 2.213177,1.98349 0.352215,0.65501 0.404522,1.12844 0.178209,1.61291 -0.16422,0.35156 -0.493417,0.81265 -0.58061,0.81325 -0.01722,9e-5 -0.01753,-0.31567 -6.97e-4,-0.70176 0.02764,-0.63223 0.0024,-0.75966 -0.255131,-1.28257 -0.233308,-0.47391 -0.408374,-0.67363 -0.952784,-1.08697 -0.784552,-0.59565 -1.58838,-1.0301 -1.750642,-0.94618 -0.06327,0.0327 -0.218771,0.11951 -0.345562,0.19284 -0.295154,0.17073 -0.749733,0.17202 -1.153555,0.003 -0.319989,-0.1337 -0.689643,-0.61319 -0.690281,-0.89539 -2.79e-4,-0.10726 -0.143222,-0.18643 -0.484446,-0.26826 -1.907738,-0.45751 -3.902016,-1.30175 -5.346313,-2.263257 -0.880532,-0.586196 -0.91409,-0.599676 -1.231767,-0.494835 -0.419844,0.138563 -0.884109,0.04927 -1.221971,-0.235022 -0.372111,-0.31311 -0.507762,-0.6927 -0.452621,-1.266562 0.04349,-0.452659 0.02211,-0.516648 -0.346336,-1.036286 -0.703185,-0.99174 -1.227102,-2.25329 -1.512854,-3.64284 -0.08441,-0.41049 -0.15627,-0.536879 -0.377,-0.663126 -0.410554,-0.23481 -0.663665,-0.695798 -0.612435,-1.115414 0.05421,-0.444044 0.256411,-0.752685 0.589777,-0.900246 0.237447,-0.105107 0.28643,-0.212551 0.519299,-1.139124 0.280346,-1.11548 0.96037,-2.658457 1.489057,-3.378672 0.312141,-0.425221 0.323864,-0.46735 0.228546,-0.821333 -0.130971,-0.486392 0.0025,-0.991491 0.350102,-1.324473 0.336557,-0.322443 0.721927,-0.42998 1.216669,-0.33951 0.379281,0.06936 0.424002,0.05119 1.157739,-0.470275 1.455131,-1.0341581 3.417593,-1.8426131 5.226816,-2.1532321 0.764325,-0.131226 0.827066,-0.160128 1.205967,-0.555573 0.356205,-0.371757 0.444054,-0.417107 0.80739,-0.4168 0.475649,3.83e-4 0.961963,0.260847 1.115247,0.59727 0.07383,0.162048 0.201611,0.244711 0.436115,0.282133 1.459533,0.232919 2.569989,0.545864 3.563551,1.004274 l 0.650018,0.299903 0.316741,-0.169871 c 0.672988,-0.360926 1.501703,-0.08713 1.837817,0.607188 0.120953,0.2498551 0.189124,0.5265341 0.163174,0.6622711 -0.05088,0.266169 -0.224992,0.13679 2.257208,1.677289 1.39207,0.863943 1.649965,0.993671 1.745804,0.878188 0.237044,-0.285619 0.857004,-0.520052 1.377335,-0.520827 1.87264,-0.0028 2.628775,2.445891 1.079815,3.496894 -0.717075,0.486551 -1.509127,0.481048 -2.240932,-0.01558 l -0.345371,-0.234375 -0.749015,0.481571 c -0.411956,0.264865 -1.293602,0.828331 -1.959213,1.252151 l -1.210201,0.770577 0.03959,0.389732 c 0.07436,0.732098 -0.55299,1.356926 -1.363074,1.357585 -0.838498,6.97e-4 -1.423411,-0.663742 -1.339076,-1.521108 l 0.04535,-0.461044 -0.885089,-0.737674 c -1.236883,-1.030881 -1.886173,-1.471819 -2.570958,-1.745958 -0.621925,-0.24897 -0.957767,-0.299106 -0.957767,-0.142975 0,0.161334 -0.585534,0.458984 -0.90362,0.459346 -0.331646,3.49e-4 -0.74652,-0.180788 -0.935519,-0.408516 -0.1689,-0.203518 -0.284158,-0.182883 -0.767785,0.137461 -1.130013,0.748489 -1.38656,2.121349 -0.584422,3.127416 0.607064,0.761397 1.554798,1.327551 4.067332,2.429722 5.878737,2.578817 8.206415,4.120114 9.737226,6.447597 0.897169,1.36409 1.338302,2.73602 1.430656,4.44938 0.151124,2.80358 -0.945803,5.41797 -3.153877,7.5169 -2.104826,2.00078 -4.919286,3.22086 -8.073958,3.50009 -1.179924,0.10444 -1.544783,0.10316 -2.660218,-0.009 z m 3.225252,-3.03045 c 0.149942,-0.0802 0.190438,-0.17598 0.16882,-0.39912 l -0.02844,-0.29355 -1.248485,0.0301 c -1.087324,0.0262 -2.474641,-0.0784 -2.965366,-0.22369 -0.149273,-0.0442 -0.534921,0.24887 -0.534921,0.40648 0,0.45691 1.055517,0.6708 3.058502,0.61979 0.770313,-0.0196 1.437554,-0.0799 1.549888,-0.14001 z m 3.163908,-1.02802 c 0.891972,-0.45272 1.984246,-1.32651 2.563925,-2.05109 0.418665,-0.52331 0.451731,-0.75696 0.127996,-0.90446 -0.218169,-0.0994 -0.282953,-0.056 -1.083456,0.72506 -0.728241,0.7106 -1.771957,1.50543 -1.976823,1.50543 -0.127418,0 -0.488252,0.40712 -0.488252,0.55089 0,0.18174 0.176014,0.3712 0.344848,0.3712 0.06795,0 0.298242,-0.0887 0.511762,-0.19703 z m -9.864797,-0.36643 c 0.157846,-0.25194 0.01729,-0.41014 -0.92089,-1.03639 -1.097476,-0.7326 -2.375979,-1.99539 -3.071498,-3.03374 -0.443875,-0.66268 -0.5477,-0.76404 -0.808358,-0.78923 -0.508316,-0.0491 -0.4105,0.34494 0.363183,1.46307 0.753033,1.08829 1.564844,1.93826 2.566397,2.68703 1.176168,0.87931 1.651694,1.05955 1.871166,0.70926 z m 13.876849,-4.25501 c 0.053,-0.0639 0.166715,-0.48918 0.252696,-0.94515 0.170733,-0.90544 0.134102,-2.18005 -0.07521,-2.61676 -0.13137,-0.27409 -0.381804,-0.35427 -0.583561,-0.18683 -0.11513,0.0956 -0.128276,0.2756 -0.07653,1.04808 0.04794,0.71569 0.0253,1.12003 -0.09727,1.73776 -0.127435,0.64221 -0.136751,0.83276 -0.04606,0.94203 0.138835,0.16729 0.49458,0.17915 0.625936,0.0209 z m -9.015422,-4.54364 c 0.183524,-0.22114 0.129167,-0.70993 -0.09954,-0.89513 -0.25639,-0.207611 -0.474827,-0.205251 -0.738142,0.008 -0.265433,0.21493 -0.287142,0.72174 -0.0387,0.90341 0.230032,0.1682 0.731014,0.15892 0.876384,-0.0162 z m 8.277734,-0.89124 c 0.06086,-0.0609 0.110651,-0.16938 0.110651,-0.241173 0,-0.211108 -0.769699,-1.30694 -1.361105,-1.937828 -0.463518,-0.494455 -0.5882,-0.579111 -0.814848,-0.553255 -0.4781,0.05455 -0.401163,0.359764 0.290623,1.152969 0.339425,0.389182 0.758526,0.928629 0.931333,1.198771 0.322355,0.503926 0.596327,0.627536 0.843346,0.380516 z m -17.08217,-3.158581 c 0.287818,-0.287815 0.287114,-0.55115 -0.0022,-0.840509 -0.379953,-0.379953 -0.971972,-0.125755 -0.968731,0.41595 0.0017,0.279991 0.07289,0.399832 0.321321,0.540706 0.275037,0.155964 0.399861,0.133649 0.649655,-0.116147 z m 13.540668,-0.626602 c 0.15503,-0.247311 0.0093,-0.404101 -1.15253,-1.239839 -1.094616,-0.787399 -1.389306,-0.896032 -1.560908,-0.575399 -0.130341,0.243551 -0.04781,0.344493 0.735985,0.900187 0.332311,0.235605 0.811676,0.585304 1.06525,0.777105 0.484832,0.366727 0.744202,0.405948 0.912203,0.137946 z m 1.898695,-6.127919 c 0.336093,-0.427273 0.09103,-0.953679 -0.451143,-0.969094 -0.354045,-0.01007 -0.537213,0.151211 -0.615327,0.541793 -0.121929,0.60964 0.672625,0.927994 1.06647,0.427301 z m 6.589976,-3.845919 c 0.581028,-0.242766 0.697997,-0.89601 0.242077,-1.351931 -0.362381,-0.362383 -0.758313,-0.362383 -1.120694,0 -0.522852,0.522851 -0.237863,1.301767 0.540255,1.476596 0.01432,0.0031 0.166569,-0.05288 0.338362,-0.124665 z m -22.029339,-2.67768 c 0.124482,-0.124482 0.226332,-0.313092 0.226332,-0.419132 0,-0.246905 -0.395971,-0.645464 -0.641274,-0.645464 -0.525096,0 -0.743164,0.76262 -0.314487,1.099817 0.31478,0.247607 0.45329,0.240919 0.729429,-0.03522 z m 8.759872,-0.461046 c 0.276502,-0.276501 0.286191,-0.50258 0.03522,-0.821638 -0.241846,-0.30746 -0.576288,-0.313826 -0.873484,-0.01663 -0.336933,0.336932 -0.255205,0.799786 0.171584,0.971743 0.319745,0.128828 0.425559,0.107642 0.66668,-0.133479 z m 6.663689,-1.194989 c 0.205076,-0.200373 0.165162,-0.708038 -0.07068,-0.8990111 -0.297758,-0.241111 -0.602998,-0.211686 -0.832646,0.08027 -0.480853,0.611304 0.347357,1.361965 0.903326,0.818741 z m -7.63418,16.440716 c -0.324645,-0.129526 -0.54823,-0.352233 -0.749454,-0.746492 -0.140218,-0.274731 -0.251971,-0.361816 -0.566495,-0.441436 -1.339086,-0.338993 -2.529109,-0.858506 -3.480825,-1.519568 -0.380363,-0.264203 -0.845374,-0.509127 -1.033358,-0.544281 -0.417686,-0.0781 -0.718616,-0.430692 -0.718616,-0.841976 0,-0.164453 -0.06454,-0.35257 -0.143422,-0.418037 -0.2724,-0.22607 -0.858004,-1.334985 -1.058388,-2.004188 -0.174441,-0.582565 -0.239387,-0.687744 -0.490864,-0.794948 -0.492286,-0.209857 -0.731224,-0.548017 -0.77141,-1.091751 -0.04495,-0.60818 0.194692,-1.034411 0.703826,-1.251841 0.302741,-0.129289 0.368588,-0.211694 0.462765,-0.579153 0.254712,-0.993837 0.897979,-2.075223 1.79092,-3.010697 0.612202,-0.641363 0.912348,-0.737679 1.089203,-0.349525 0.09555,0.20972 0.05005,0.283421 -0.604787,0.979516 -0.543417,0.577656 -0.801507,0.948482 -1.109644,1.594349 -0.543673,1.139555 -0.555387,1.214289 -0.226983,1.448134 0.406805,0.289669 0.571571,0.679463 0.518903,1.227588 -0.03859,0.401627 -0.09592,0.511874 -0.412073,0.792432 -0.364229,0.323227 -0.366347,0.328946 -0.25782,0.696502 0.111439,0.377423 0.685927,1.515585 0.923282,1.829185 0.07823,0.10336 0.190387,0.150099 0.278784,0.116179 0.08134,-0.03123 0.287943,0.0017 0.459109,0.07328 0.235279,0.09831 0.33391,0.212251 0.404253,0.46701 0.05117,0.185336 0.07199,0.391837 0.04626,0.458889 -0.11998,0.312663 2.120378,1.548515 3.454435,1.905574 l 0.742135,0.198629 0.238888,-0.283898 c 0.483825,-0.574998 1.304734,-0.601317 1.846837,-0.05922 0.990676,0.990677 -0.04838,2.663274 -1.335462,2.149742 z m 0.867504,-0.779663 c 0.07969,-0.0797 0.144899,-0.284204 0.144899,-0.45446 0,-0.393984 -0.205843,-0.599359 -0.600715,-0.599359 -0.216765,0 -0.354387,0.06206 -0.45446,0.204936 -0.192564,0.27492 -0.180809,0.460493 0.04757,0.750824 0.219849,0.279496 0.634179,0.326589 0.862709,0.09806 z m -8.212466,-7.238527 c 0.455203,-0.358063 0.204182,-1.099819 -0.372193,-1.099819 -0.579709,0 -0.806761,0.733144 -0.34061,1.099819 0.133627,0.10511 0.294008,0.191111 0.356402,0.191111 0.06239,0 0.222774,-0.086 0.356401,-0.191111 z"
       id="path7314" /><text
       xml:space="preserve"
       style="font-style:normal;font-variant:normal;font-weight:normal;font-stretch:normal;font-size:7.86852px;line-height:1.25;font-family:Ubuntu;-inkscape-font-specification:Ubuntu;fill:#000000;fill-opacity:1;stroke:none;stroke-width:0.092209"
       x="5.8614063"
       y="60.044815"
       id="text7318"><tspan
         sodipodi:role="line"
         id="tspan7316"
         style="font-style:normal;font-variant:normal;font-weight:normal;font-stretch:normal;font-size:7.86852px;font-family:Ubuntu;-inkscape-font-specification:Ubuntu;stroke-width:0.092209"
         x="5.8614063"
         y="60.044815">SHOFER.AI</tspan></text></g></svg>
