<?xml version="1.0" encoding="UTF-8" standalone="no"?>
<!-- Created with Inkscape (http://www.inkscape.org/) -->

<svg
   width="28.173607mm"
   height="35.943771mm"
   viewBox="0 0 28.173607 35.943771"
   version="1.1"
   id="svg240"
   xml:space="preserve"
   inkscape:version="1.2.2 (b0a8486541, 2022-12-01)"
   sodipodi:docname="new-shofer-logo.svg"
   xmlns:inkscape="http://www.inkscape.org/namespaces/inkscape"
   xmlns:sodipodi="http://sodipodi.sourceforge.net/DTD/sodipodi-0.dtd"
   xmlns="http://www.w3.org/2000/svg"
   xmlns:svg="http://www.w3.org/2000/svg"><sodipodi:namedview
     id="namedview242"
     pagecolor="#ffffff"
     bordercolor="#666666"
     borderopacity="1.0"
     inkscape:showpageshadow="2"
     inkscape:pageopacity="0.0"
     inkscape:pagecheckerboard="0"
     inkscape:deskcolor="#d1d1d1"
     inkscape:document-units="mm"
     showgrid="false"
     inkscape:zoom="1.1169949"
     inkscape:cx="85.944885"
     inkscape:cy="359.44658"
     inkscape:window-width="1920"
     inkscape:window-height="1121"
     inkscape:window-x="0"
     inkscape:window-y="0"
     inkscape:window-maximized="1"
     inkscape:current-layer="layer1" /><defs
     id="defs237" /><g
     inkscape:label="Layer 1"
     inkscape:groupmode="layer"
     id="layer1"
     transform="translate(-3.6262463,-137.53788)"><path
       style="fill:#000000;stroke-width:0.092209"
       d="m 15.587047,173.39546 c -2.129514,-0.21478 -4.313724,-0.96245 -6.1911316,-2.11924 -1.638594,-1.00965 -3.285429,-2.55392 -4.440505,-4.16397 -1.080878,-1.50663 -1.309814,-2.14339 -0.926782,-2.57777 0.199413,-0.22615 4.018451,-2.76026 4.67545,-3.10239 0.412884,-0.215 0.466606,-0.22252 0.691569,-0.0968 0.1413,0.079 0.3999287,0.42604 0.6147796,0.82494 1.251493,2.32356 3.051954,3.86287 5.195277,4.44171 0.903814,0.24409 2.46461,0.26324 3.332038,0.0409 2.484622,-0.63691 4.047268,-2.58784 3.830975,-4.78287 -0.21259,-2.15745 -1.19577,-3.51795 -5.464822,-7.56206 -1.245575,-1.17994 -2.551462,-2.49805 -2.901977,-2.92913 -1.205817,-1.48297 -1.571445,-2.64973 -1.238099,-3.95091 0.182799,-0.71353 0.182781,-0.71003 0.0031,-0.56088 -0.270472,0.22447 -0.655594,0.86593 -0.820103,1.36596 -0.378925,1.15175 -0.01544,2.31396 1.099202,3.51453 0.353205,0.38044 0.810098,0.87263 1.01532,1.09376 0.337888,0.36407 0.351354,0.39612 0.142605,0.33922 -1.059737,-0.28882 -2.274699,-1.29384 -2.757868,-2.28133 -0.770825,-1.57538 -0.396944,-3.50196 0.915395,-4.71696 0.61631,-0.57059 1.668439,-1.11971 2.465862,-1.28698 0.370163,-0.0776 0.523419,-0.15725 0.577737,-0.30011 0.04066,-0.10695 0.205163,-0.30487 0.365567,-0.43984 0.554499,-0.46658 1.52162,-0.23178 1.801179,0.4373 0.100077,0.23952 0.199914,0.32305 0.43992,0.36808 0.847469,0.15898 2.245313,1.02673 3.654986,2.26891 0.631279,0.55628 0.767897,0.63891 0.920899,0.55703 0.268023,-0.14344 0.913263,-0.11613 1.195511,0.0506 0.246695,0.14573 0.262064,0.13803 2.227247,-1.116 1.088359,-0.69451 1.996816,-1.27991 2.018793,-1.30089 0.153075,-0.14616 -0.360454,-0.2152 -1.904061,-0.25602 l -1.771894,-0.0468 -0.194819,0.2736 c -0.474764,0.66674 -1.367887,0.73017 -1.912565,0.13582 -0.276328,-0.30153 -0.306753,-0.38708 -0.284793,-0.80084 l 0.02457,-0.46325 -0.640468,-0.417 c -0.813423,-0.5296 -1.66324,-0.91706 -2.484651,-1.13286 -1.143734,-0.30046 -1.113462,-0.29933 -1.228944,-0.0459 -0.16584,0.36398 -0.63636,0.59666 -1.207354,0.59705 -0.472844,3.8e-4 -0.521589,-0.0223 -0.900514,-0.41775 -0.399379,-0.41682 -0.401808,-0.4178 -0.791024,-0.31916 -1.182837,0.29976 -1.62504,0.49002 -1.730474,0.74456 -0.224379,0.5417 -1.022746,0.57489 -1.272926,0.0529 -0.256762,-0.53572 0.138776,-1.12189 0.70868,-1.05024 0.218098,0.0274 0.612905,-0.0482 1.120526,-0.21456 0.431079,-0.1413 0.970502,-0.28451 1.198722,-0.31825 0.363528,-0.0537 0.434606,-0.10337 0.573653,-0.40042 0.207808,-0.44396 0.640187,-0.69406 1.199879,-0.69406 0.518188,0 0.858596,0.21234 1.127403,0.70327 0.160839,0.29374 0.241403,0.34206 0.730829,0.43835 1.131171,0.22254 2.8672,0.98397 3.709754,1.62711 0.340411,0.25984 0.425109,0.28546 0.722121,0.21848 0.437474,-0.0987 0.936072,0.042 1.214697,0.3426 0.120566,0.13009 0.219207,0.27282 0.219207,0.31718 0,0.0444 0.840258,0.0694 1.867235,0.0557 1.180397,-0.0158 1.861359,-0.0589 1.851259,-0.11717 -0.01575,-0.0908 -0.474203,-0.38974 -2.473668,-1.61267 -1.469184,-0.8986 -1.401068,-0.87054 -1.676093,-0.69034 -0.324254,0.21246 -1.101418,0.19814 -1.401385,-0.0258 -0.394935,-0.29454 -0.588799,-0.63618 -0.635203,-1.11908 l -0.0447,-0.46521 -0.841463,-0.32095 c -0.999829,-0.38137 -1.626396,-0.5633 -2.538536,-0.7371 l -0.675198,-0.12866 -0.265733,0.30266 c -0.548494,0.6247 -1.247067,0.65426 -1.824139,0.0772 -0.315304,-0.31531 -0.342275,-0.32392 -0.833482,-0.26619 -1.744418,0.20502 -3.849223,1.08131 -5.3544346,2.2292 -0.417069,0.31806 -0.437656,0.35362 -0.350097,0.6048 0.133646,0.38338 0.01446,0.86335 -0.30462,1.22677 -0.333379,0.3797 -0.79132,0.54756 -1.272148,0.46633 -0.438097,-0.074 -0.536228,0.0343 -1.192689,1.31686 -0.461021,0.9007 -0.767579,1.75854 -0.889164,2.48815 -0.05919,0.3552 -0.04159,0.41394 0.175171,0.58445 0.302381,0.23785 0.514025,0.63986 0.513577,0.97552 -4.53e-4,0.31568 -0.282208,0.79673 -0.581642,0.99292 -0.208635,0.1367 -0.216758,0.17402 -0.135357,0.62188 0.180254,0.99174 0.904037,2.63489 1.520836,3.45264 0.203101,0.26928 0.243233,0.2845 0.536467,0.20353 0.898053,-0.24796 1.799958,0.58375 1.663507,1.53403 l -0.05296,0.36884 0.6845517,0.48801 c 1.1912099,0.84919 2.5170659,1.44903 4.4291919,2.00383 l 1.102461,0.31988 0.286657,-0.27784 c 0.336689,-0.32633 0.808941,-0.48529 1.196791,-0.40284 0.595487,0.12659 1.060406,0.66304 1.060406,1.22356 0,0.25016 0.06771,0.31042 0.756299,0.6731 0.889181,0.46833 1.872155,1.34929 2.213177,1.98349 0.352215,0.65501 0.404522,1.12844 0.178209,1.61291 -0.16422,0.35156 -0.493417,0.81265 -0.58061,0.81325 -0.01722,9e-5 -0.01753,-0.31567 -6.97e-4,-0.70176 0.02764,-0.63223 0.0024,-0.75966 -0.255131,-1.28257 -0.233308,-0.47391 -0.408374,-0.67363 -0.952784,-1.08697 -0.784552,-0.59565 -1.58838,-1.0301 -1.750642,-0.94618 -0.06327,0.0327 -0.218771,0.11951 -0.345562,0.19284 -0.295154,0.17073 -0.749733,0.17202 -1.153555,0.003 -0.319989,-0.1337 -0.689643,-0.61319 -0.690281,-0.89539 -2.79e-4,-0.10726 -0.143222,-0.18643 -0.484446,-0.26826 -1.907738,-0.45751 -3.902016,-1.30175 -5.3463126,-2.26325 -0.880532,-0.5862 -0.91409,-0.59968 -1.231767,-0.49484 -0.419844,0.13856 -0.884109,0.0493 -1.221971,-0.23502 -0.372111,-0.31311 -0.507762,-0.6927 -0.452621,-1.26656 0.04349,-0.45266 0.02211,-0.51665 -0.346336,-1.03629 -0.703185,-0.99174 -1.227102,-2.25329 -1.512854,-3.64284 -0.08441,-0.41049 -0.15627,-0.53688 -0.377,-0.66312 -0.410554,-0.23481 -0.663665,-0.6958 -0.612435,-1.11542 0.05421,-0.44404 0.256411,-0.75268 0.589777,-0.90024 0.237447,-0.10511 0.28643,-0.21256 0.519299,-1.13913 0.280346,-1.11548 0.96037,-2.65846 1.489057,-3.37867 0.312141,-0.42522 0.323864,-0.46735 0.228546,-0.82133 -0.130971,-0.4864 0.0025,-0.99149 0.350102,-1.32448 0.336557,-0.32244 0.721927,-0.42998 1.216669,-0.33951 0.379281,0.0694 0.424002,0.0512 1.157739,-0.47027 1.4551306,-1.03416 3.4175926,-1.84261 5.2268156,-2.15323 0.764325,-0.13123 0.827066,-0.16013 1.205967,-0.55558 0.356205,-0.37175 0.444054,-0.4171 0.80739,-0.4168 0.475649,3.9e-4 0.961963,0.26085 1.115247,0.59727 0.07383,0.16205 0.201611,0.24471 0.436115,0.28214 1.459533,0.23292 2.569989,0.54586 3.563551,1.00427 l 0.650018,0.2999 0.316741,-0.16987 c 0.672988,-0.36092 1.501703,-0.0871 1.837817,0.60719 0.120953,0.24986 0.189124,0.52653 0.163174,0.66227 -0.05088,0.26617 -0.224992,0.13679 2.257208,1.67729 1.39207,0.86394 1.649965,0.99367 1.745804,0.87819 0.237044,-0.28562 0.857004,-0.52005 1.377335,-0.52083 1.87264,-0.003 2.628775,2.44589 1.079815,3.4969 -0.717075,0.48655 -1.509127,0.48104 -2.240932,-0.0156 l -0.345371,-0.23438 -0.749015,0.48157 c -0.411956,0.26487 -1.293602,0.82833 -1.959213,1.25215 l -1.210201,0.77058 0.03959,0.38973 c 0.07436,0.7321 -0.55299,1.35693 -1.363074,1.35759 -0.838498,6.9e-4 -1.423411,-0.66375 -1.339076,-1.52111 l 0.04535,-0.46105 -0.885089,-0.73767 c -1.236883,-1.03088 -1.886173,-1.47182 -2.570958,-1.74596 -0.621925,-0.24897 -0.957767,-0.2991 -0.957767,-0.14297 0,0.16133 -0.585534,0.45898 -0.90362,0.45934 -0.331646,3.5e-4 -0.74652,-0.18078 -0.935519,-0.40851 -0.1689,-0.20352 -0.284158,-0.18289 -0.767785,0.13746 -1.130013,0.74849 -1.38656,2.12135 -0.584422,3.12741 0.607064,0.7614 1.554798,1.32756 4.067332,2.42973 5.878737,2.57881 8.206415,4.12011 9.737226,6.44759 0.897169,1.36409 1.338302,2.73602 1.430656,4.44938 0.151124,2.80358 -0.945803,5.41797 -3.153877,7.5169 -2.104826,2.00078 -4.919286,3.22086 -8.073958,3.5001 -1.179924,0.10444 -1.544783,0.10316 -2.660218,-0.009 z m 3.225252,-3.03046 c 0.149942,-0.0802 0.190438,-0.17598 0.16882,-0.39912 l -0.02844,-0.29355 -1.248485,0.0301 c -1.087324,0.0262 -2.474641,-0.0784 -2.965366,-0.22369 -0.149273,-0.0442 -0.534921,0.24887 -0.534921,0.40648 0,0.45691 1.055517,0.6708 3.058502,0.61979 0.770313,-0.0196 1.437554,-0.0799 1.549888,-0.14001 z m 3.163908,-1.02802 c 0.891972,-0.45272 1.984246,-1.32651 2.563925,-2.05109 0.418665,-0.52331 0.451731,-0.75696 0.127996,-0.90446 -0.218169,-0.0994 -0.282953,-0.056 -1.083456,0.72506 -0.728241,0.7106 -1.771957,1.50543 -1.976823,1.50543 -0.127418,0 -0.488252,0.40712 -0.488252,0.55089 0,0.18174 0.176014,0.3712 0.344848,0.3712 0.06795,0 0.298242,-0.0887 0.511762,-0.19703 z m -9.864797,-0.36643 c 0.157846,-0.25194 0.01729,-0.41014 -0.92089,-1.03639 -1.097476,-0.7326 -2.3759786,-1.99539 -3.0714976,-3.03374 -0.443875,-0.66268 -0.5477,-0.76404 -0.808358,-0.78923 -0.508316,-0.0491 -0.4105,0.34494 0.363183,1.46307 0.753033,1.08829 1.564844,1.93826 2.5663966,2.68703 1.176168,0.87931 1.651694,1.05955 1.871166,0.70926 z m 13.876849,-4.25501 c 0.053,-0.0639 0.166715,-0.48918 0.252696,-0.94515 0.170733,-0.90544 0.134102,-2.18005 -0.07521,-2.61676 -0.13137,-0.27409 -0.381804,-0.35427 -0.583561,-0.18683 -0.11513,0.0956 -0.128276,0.2756 -0.07653,1.04808 0.04794,0.71569 0.0253,1.12003 -0.09727,1.73776 -0.127435,0.64221 -0.136751,0.83276 -0.04606,0.94203 0.138835,0.16729 0.49458,0.17915 0.625936,0.0209 z m -9.015422,-4.54364 c 0.183524,-0.22114 0.129167,-0.70993 -0.09954,-0.89513 -0.25639,-0.20761 -0.474827,-0.20525 -0.738142,0.008 -0.265433,0.21493 -0.287142,0.72174 -0.0387,0.90341 0.230032,0.1682 0.731014,0.15892 0.876384,-0.0162 z m 8.277734,-0.89124 c 0.06086,-0.0609 0.110651,-0.16938 0.110651,-0.24117 0,-0.21111 -0.769699,-1.30694 -1.361105,-1.93783 -0.463518,-0.49445 -0.5882,-0.57911 -0.814848,-0.55325 -0.4781,0.0546 -0.401163,0.35976 0.290623,1.15297 0.339425,0.38918 0.758526,0.92863 0.931333,1.19877 0.322355,0.50392 0.596327,0.62753 0.843346,0.38051 z M 8.1684014,156.12208 c 0.287818,-0.28781 0.287114,-0.55115 -0.0022,-0.84051 -0.379953,-0.37995 -0.971972,-0.12575 -0.968731,0.41595 0.0017,0.27999 0.07289,0.39984 0.321321,0.54071 0.275037,0.15596 0.399861,0.13365 0.649655,-0.11615 z m 13.5406676,-0.6266 c 0.15503,-0.24731 0.0093,-0.4041 -1.15253,-1.23984 -1.094616,-0.7874 -1.389306,-0.89603 -1.560908,-0.5754 -0.130341,0.24355 -0.04781,0.3445 0.735985,0.90019 0.332311,0.2356 0.811676,0.5853 1.06525,0.7771 0.484832,0.36673 0.744202,0.40595 0.912203,0.13795 z m 1.898695,-6.12792 c 0.336093,-0.42727 0.09103,-0.95368 -0.451143,-0.96909 -0.354045,-0.0101 -0.537213,0.15121 -0.615327,0.54179 -0.121929,0.60964 0.672625,0.92799 1.06647,0.4273 z m 6.589976,-3.84592 c 0.581028,-0.24276 0.697997,-0.89601 0.242077,-1.35193 -0.362381,-0.36238 -0.758313,-0.36238 -1.120694,0 -0.522852,0.52285 -0.237863,1.30177 0.540255,1.4766 0.01432,0.003 0.166569,-0.0529 0.338362,-0.12467 z M 8.1684014,142.84396 c 0.124482,-0.12448 0.226332,-0.31309 0.226332,-0.41913 0,-0.2469 -0.395971,-0.64546 -0.641274,-0.64546 -0.525096,0 -0.743164,0.76262 -0.314487,1.09981 0.31478,0.24761 0.45329,0.24092 0.729429,-0.0352 z m 8.7598716,-0.46104 c 0.276502,-0.2765 0.286191,-0.50258 0.03522,-0.82164 -0.241846,-0.30746 -0.576288,-0.31383 -0.873484,-0.0166 -0.336933,0.33693 -0.255205,0.79978 0.171584,0.97174 0.319745,0.12883 0.425559,0.10764 0.66668,-0.13348 z m 6.663689,-1.19499 c 0.205076,-0.20038 0.165162,-0.70804 -0.07068,-0.89901 -0.297758,-0.24111 -0.602998,-0.21169 -0.832646,0.0803 -0.480853,0.6113 0.347357,1.36196 0.903326,0.81874 z m -7.63418,16.44071 c -0.324645,-0.12952 -0.54823,-0.35223 -0.749454,-0.74649 -0.140218,-0.27473 -0.251971,-0.36181 -0.566495,-0.44143 -1.339086,-0.339 -2.529109,-0.85851 -3.480825,-1.51957 -0.380363,-0.26421 -0.845374,-0.50913 -1.033358,-0.54428 -0.4176859,-0.0781 -0.7186156,-0.4307 -0.7186156,-0.84198 0,-0.16445 -0.06454,-0.35257 -0.143422,-0.41804 -0.2724,-0.22607 -0.858004,-1.33498 -1.058388,-2.00418 -0.174441,-0.58257 -0.239387,-0.68775 -0.490864,-0.79495 -0.492286,-0.20986 -0.731224,-0.54802 -0.77141,-1.09175 -0.04495,-0.60818 0.194692,-1.03441 0.703826,-1.25184 0.302741,-0.12929 0.368588,-0.2117 0.462765,-0.57916 0.254712,-0.99383 0.897979,-2.07522 1.7909197,-3.01069 0.6122019,-0.64137 0.9123479,-0.73768 1.0892029,-0.34953 0.09555,0.20972 0.05005,0.28342 -0.604787,0.97952 -0.5434169,0.57765 -0.8015069,0.94848 -1.1096436,1.59435 -0.543673,1.13955 -0.555387,1.21428 -0.226983,1.44813 0.406805,0.28967 0.5715707,0.67946 0.5189027,1.22759 -0.03859,0.40162 -0.09592,0.51187 -0.4120727,0.79243 -0.364229,0.32323 -0.366347,0.32895 -0.25782,0.6965 0.111439,0.37742 0.6859267,1.51559 0.9232817,1.82919 0.07823,0.10336 0.1903869,0.1501 0.2787839,0.11618 0.08134,-0.0312 0.287943,0.002 0.459109,0.0733 0.235279,0.0983 0.33391,0.21225 0.404253,0.46701 0.05117,0.18533 0.07199,0.39183 0.04626,0.45888 -0.11998,0.31267 2.120378,1.54852 3.454435,1.90558 l 0.742135,0.19863 0.238888,-0.2839 c 0.483825,-0.575 1.304734,-0.60132 1.846837,-0.0592 0.990676,0.99068 -0.04838,2.66327 -1.335462,2.14974 z m 0.867504,-0.77966 c 0.07969,-0.0797 0.144899,-0.2842 0.144899,-0.45446 0,-0.39398 -0.205843,-0.59936 -0.600715,-0.59936 -0.216765,0 -0.354387,0.0621 -0.45446,0.20494 -0.192564,0.27492 -0.180809,0.46049 0.04757,0.75082 0.219849,0.2795 0.634179,0.32659 0.862709,0.0981 z m -8.2124656,-7.23853 c 0.455203,-0.35806 0.204182,-1.09982 -0.372193,-1.09982 -0.579709,0 -0.806761,0.73315 -0.34061,1.09982 0.133627,0.10511 0.294008,0.19111 0.356402,0.19111 0.06239,0 0.222774,-0.086 0.356401,-0.19111 z"
       id="path7314"
       sodipodi:nodetypes="csssscsscsscscssssssssssssssscscssccssscssscsssssssssssscsscscsscsssssscssscssscscsscsssssscccccccccsssssscssssscsssscscscssssscsscsscscscssscscssssssccssccsscsscsscssscscscssscsscssscccscscccsssssccccsccscsssssssscssccssssssssssssscssscscssssssssssssssssccssscscssssssssssssss"
       inkscape:export-filename="shofer.png"
       inkscape:export-xdpi="150.51845"
       inkscape:export-ydpi="150.51845" /></g></svg>
